<?xml version="1.0" encoding="UTF-8"?>
<svg xmlns="http://www.w3.org/2000/svg" width="663" height="147" viewBox="0 0 663 147" fill="none">
  <rect x="83" y="39" width="43" height="49" fill="white"></rect>
  <path d="M157.587 109.169C157.587 110.925 156.957 111.553 156.957 111.553C156.957 111.553 152.807 109.545 148.661 107.664C147.782 104.283 145.768 99.5183 141.746 94.2566C140.113 92.0001 137.472 88.6153 136.593 85.2305C135.209 80.2171 134.205 75.7077 134.205 75.7077C134.205 75.7077 134.454 75.2038 135.209 75.2038H155.576C156.202 75.2038 157.587 76.0838 157.587 76.584C157.587 80.2171 157.587 108.292 157.587 109.169ZM164.751 137.244V9.4062C164.626 8.02963 163.242 6.77356 161.355 6.64941H34.2669C32.7617 6.64941 31 7.65354 31 9.53034V137.368C31 138.749 32.7617 140.001 33.8897 140.001H161.106C162.864 140.001 164.626 139.125 164.751 137.244ZM156.33 130.475C156.078 132.231 155.323 132.107 154.444 132.107C151.679 132.231 152.305 132.355 149.917 132.355C149.917 132.355 152.807 125.461 153.437 123.833C154.316 121.576 154.946 120.075 154.946 120.075C156.455 120.952 156.832 121.2 156.957 122.204C156.957 122.832 156.58 128.974 156.33 130.475ZM143.885 132.231C143.508 130.226 144.512 128.094 145.266 126.089C147.028 120.952 147.782 117.443 148.533 115.687C148.786 115.186 149.038 114.81 149.793 115.062C151.551 115.562 152.935 116.315 152.935 116.315C149.917 124.461 146.522 132.231 146.522 132.231H143.885ZM140.743 122.832C139.736 120.452 139.483 118.319 140.113 115.062C140.992 110.297 140.867 106.54 141.245 106.036C141.871 106.664 142.754 108.417 143.003 110.297C143.633 113.806 141.245 121.704 140.743 122.832ZM137.095 114.434C136.341 112.806 135.462 111.926 135.209 109.169C135.084 107.04 135.714 105.16 136.092 101.15C136.216 99.7702 136.593 98.6419 136.718 98.0176C137.348 98.39 137.6 99.3941 138.102 101.15C138.857 104.407 137.472 113.306 137.095 114.434ZM132.949 127.218C132.696 123.457 129.679 119.447 129.301 116.566C129.177 115.31 129.429 113.806 130.056 112.806C130.056 112.806 131.942 117.067 133.074 119.071C134.33 121.328 135.586 123.833 135.839 126.966C136.092 129.85 136.216 132.859 136.216 132.859C133.451 132.983 133.198 132.731 132.949 127.218ZM130.433 132.983C127.543 132.983 127.291 132.607 127.038 127.218C126.913 123.208 124.148 120.576 123.646 117.191C123.141 113.682 125.155 110.425 126.789 108.041C128.547 110.673 126.536 113.182 126.412 115.062C126.034 119.572 129.554 122.456 130.18 127.218C130.433 129.85 130.433 132.983 130.433 132.983ZM124.525 132.983C121.508 132.983 121.383 132.483 121.258 127.218C121.13 123.457 118.116 119.572 118.116 116.187C117.988 110.925 121.508 107.292 122.262 103.279C122.892 99.7702 119.497 88.8672 118.995 86.9868C118.742 86.2346 117.233 84.7302 117.233 84.23C117.233 83.3537 117.988 82.7256 117.863 80.5932C117.863 79.0889 117.486 77.0843 117.486 77.0843C118.995 77.4604 120.629 80.5932 121.13 82.6015C121.636 84.23 122.515 87.2387 123.141 89.6194C123.771 91.876 125.657 99.018 125.404 102.651C125.155 106.54 120.881 110.801 121.006 115.814C121.006 120.075 123.895 122.956 124.401 127.093C124.525 129.85 124.525 132.983 124.525 132.983ZM118.742 132.983C115.977 132.983 115.724 132.231 115.6 127.342C115.475 123.081 112.71 119.948 112.333 116.187C111.828 110.549 116.732 106.912 116.856 102.279C116.856 98.7661 114.344 91.4999 114.468 86.9868C116.102 86.8626 116.479 88.2392 116.984 89.9955C117.988 93.0042 119.372 99.1422 119.372 102.403C119.244 107.664 114.974 110.049 115.223 116.315C115.347 120.324 118.49 123.833 118.742 127.469C118.867 129.598 118.742 132.983 118.742 132.983ZM113.087 132.983C109.941 132.983 109.941 132.107 109.817 127.342C109.692 123.709 107.304 120.324 106.927 116.439C106.297 111.425 110.949 106.788 111.326 102.779C111.578 99.6461 110.571 97.1376 109.941 93.6286C109.692 92.0001 109.568 87.9909 109.692 86.4865C111.578 86.3587 112.205 87.8631 112.205 88.9914C112.205 90.4957 112.333 92.0001 112.582 93.5045C113.087 96.3854 114.091 99.27 114.091 102.279C114.091 107.04 109.191 110.297 109.941 116.315C110.322 120.324 112.582 123.081 112.959 127.342C113.212 129.598 113.087 132.983 113.087 132.983ZM103.785 127.218C103.532 123.332 101.774 119.824 101.397 116.439C101.02 112.93 101.774 110.549 103.279 107.916C104.286 106.036 105.543 104.784 105.795 102.779C106.048 100.774 105.418 98.7661 105.041 96.7615C104.664 94.3808 105.041 86.4865 105.041 86.4865C102.653 86.7348 102.151 92.5003 102.4 96.1371C102.525 98.5178 103.532 101.15 103.155 103.279C102.906 105.035 101.269 106.164 100.39 107.792C99.1333 110.049 98.5034 112.806 98.7561 116.439C99.0088 120.452 100.767 123.081 101.269 127.218C101.521 129.474 101.397 132.859 101.397 132.859C98.2543 132.859 98.3789 131.731 98.1262 127.342C97.8771 123.457 95.6137 120.828 95.2364 117.067C94.8592 113.43 95.6137 110.049 97.2472 107.54C98.0016 106.288 99.5106 105.035 100.012 103.403C100.767 100.898 99.1333 96.5132 99.6351 92.6281C100.265 88.115 102.023 81.8493 103.155 80.9693C105.795 81.3454 107.176 80.5932 108.308 80.3449C109.062 80.3449 109.817 81.2213 110.699 81.2213C111.828 81.2213 112.71 80.5932 113.465 79.9689C114.091 80.3449 114.344 80.9693 113.966 81.5974C113.336 82.6015 112.457 83.4778 112.457 83.4778C110.194 83.9781 107.304 83.2259 106.674 83.602C107.682 86.2346 106.799 89.4916 107.176 93.0042C107.553 96.5132 108.685 99.7702 108.561 102.279C108.436 103.907 107.052 106.036 106.297 107.792C105.165 110.173 103.785 112.554 104.162 116.315C104.539 120.324 106.55 122.832 106.927 127.093C107.052 129.35 107.176 132.859 107.176 132.859C104.162 132.983 104.162 131.855 103.785 127.218ZM94.1047 104.784C93.7275 101.527 92.4713 97.7656 92.7203 94.3808C92.8485 92.5003 93.852 90.1196 94.482 87.8631C95.1083 85.2305 96.1154 81.3454 97.3717 79.5928C98.5034 77.9643 100.137 76.9601 102.906 75.7077C104.411 75.0797 105.165 74.5794 105.92 73.4512C104.539 72.699 103.532 72.8231 102.525 73.4512C101.774 73.9514 100.891 74.3275 100.012 74.8277C95.9909 76.7082 94.6065 78.8406 93.3503 82.7256C92.973 83.7298 92.5958 85.6066 92.2186 87.487C91.8413 89.6194 90.4606 91.7482 90.2078 93.6286C89.5779 97.7656 92.2186 104.031 91.7168 109.545C91.5886 111.425 90.8341 113.182 90.8341 114.934C90.7096 119.824 93.603 124.337 93.9802 128.846C94.1047 129.726 94.1047 130.475 94.1047 131.479C94.1047 132.483 93.2257 133.235 91.3396 133.235C91.3396 133.235 91.4641 131.103 91.215 128.722C90.7096 124.209 88.1971 119.572 87.6917 116.187C87.3145 113.43 89.0761 110.925 88.9516 106.788C88.8234 102.527 86.8127 97.1376 87.6917 93.1284C88.1971 90.7477 89.8306 88.8672 90.2078 86.6107C90.4606 84.9822 91.0868 82.0976 91.7168 80.5932C92.2186 79.2167 93.4748 77.4604 94.3575 75.956C95.2364 74.2033 95.9909 72.447 93.9802 71.3188C93.4748 72.3229 92.8485 73.8273 92.2186 74.9555C91.3396 76.584 90.0833 77.9643 89.4534 79.5928C88.4462 81.8493 88.5744 83.4778 88.069 85.8585C87.4427 88.2392 85.8092 89.8677 85.3038 92.252C84.4248 96.6373 86.4355 101.775 86.4355 106.54C86.311 109.421 84.6775 112.806 84.9265 115.687C85.3038 120.2 87.6917 123.961 88.4462 128.598C88.5744 129.474 88.6989 130.35 88.6989 131.479C88.6989 132.859 87.4427 133.235 86.0582 133.235C86.0582 133.235 86.0582 131.103 85.8092 128.722C85.1792 123.709 82.4141 120.452 82.2895 115.438C82.2895 112.806 83.5458 109.297 83.7948 106.412C84.0475 101.399 81.7841 96.0093 83.044 91.2479C83.6703 88.7431 85.1792 88.2392 86.0582 85.6066C86.6882 83.4778 86.8127 80.4691 87.4427 78.7128C87.9444 77.2121 89.3289 75.956 90.3324 74.0792C91.3396 72.0709 91.9658 70.3183 89.9551 68.6898C89.4534 69.6903 88.9516 71.8227 88.3217 73.0751C87.3145 74.9555 85.9337 75.956 85.0547 77.7123C84.0475 79.8411 84.1721 82.6015 83.5458 84.9822C83.044 87.1109 81.2824 87.9909 80.6524 90.2438C79.1471 95.2571 81.2824 101.15 81.0296 106.036C80.9051 108.417 79.5207 112.178 79.5207 114.81C79.3962 119.699 82.2895 123.709 82.9158 128.598C83.044 129.474 83.1685 130.726 83.1685 131.479C83.1685 132.859 81.6596 133.235 80.2752 133.235C80.2752 133.235 80.2752 131.227 79.8979 128.846C79.2716 123.833 76.5065 120.075 76.7555 114.434C76.8837 111.801 78.3926 108.417 78.3926 105.66C78.3926 100.647 76.631 93.6286 78.3926 89.2433C79.0189 87.6148 80.9051 85.8585 81.2824 84.6061C81.5351 83.4778 81.7841 81.7215 82.0368 80.4691C82.2895 79.2167 82.5386 77.8365 83.1685 76.7082C84.5493 73.6995 86.9409 72.699 87.19 68.4378C87.4427 63.5487 86.5637 57.031 87.6917 53.1459C89.2007 48.1326 92.8485 45.8797 97.1226 45.2517C104.539 44.1234 114.215 44.3753 119.874 45.8797C120.504 47.8843 122.764 50.1408 122.39 51.3933C122.39 51.3933 121.383 50.6411 120.127 50.5169C118.49 50.3891 116.984 50.893 114.344 51.2655C113.714 51.3933 113.087 51.2655 112.457 51.2655C111.578 51.2655 111.326 51.3933 111.326 53.1459C111.201 54.6503 110.824 56.0305 111.073 57.5349C111.326 58.6631 112.333 59.6636 112.835 60.916C113.212 62.0443 113.336 63.9247 113.714 65.5533C114.468 68.8139 115.475 70.6944 112.835 72.447C111.326 71.1946 107.304 68.0617 106.799 72.0709C108.059 72.447 109.568 72.8231 110.447 73.5753C110.322 74.3275 110.322 75.956 110.447 76.3321C110.571 76.836 111.326 77.2121 111.956 77.0843C112.457 76.3321 112.457 74.7036 113.966 74.8277C114.468 76.3321 114.091 78.9647 112.333 79.0889C111.201 79.2167 110.699 78.0884 109.568 77.9642C108.183 77.8365 107.176 79.0889 105.671 79.0889C105.294 78.9647 105.418 78.5886 105.418 78.2125C105.418 77.8365 105.294 77.4604 104.788 77.5882C102.276 78.3403 100.265 79.7169 99.2579 81.9735C98.5034 83.602 97.8771 86.4865 97.2472 88.6153C96.24 91.876 95.361 93.7528 95.9909 98.1417C95.9909 100.898 96.6172 103.403 94.1047 104.784ZM73.9903 86.4865C72.7341 88.6153 72.6096 91.876 72.8586 95.2571C72.9868 98.2658 73.9903 104.156 70.5989 105.16C67.2037 106.164 63.6841 107.54 60.7907 108.793C58.6555 109.797 56.3921 111.677 54.6341 110.673C56.8938 106.412 62.6769 104.908 67.4564 103.279C70.2216 102.279 70.3462 100.774 70.4707 98.6419C70.7234 94.7569 69.8444 88.6153 71.3533 85.4824C72.2323 83.7298 74.6203 82.8498 74.9975 80.8452C75.3748 79.3408 75.6238 77.0843 76.3783 75.0797C77.3855 72.5748 79.0189 71.0705 79.6489 68.562C80.1506 66.5574 80.2752 63.9247 80.0261 61.4199C80.0261 61.4199 80.9051 60.6677 82.2895 60.1675C82.5386 63.8006 82.6668 65.5533 82.1614 68.8139C81.7841 70.9427 79.8979 72.9509 78.8944 74.9555C77.3855 77.7123 77.8872 80.721 76.7555 83.1017C76.2538 84.4783 74.873 85.2305 73.9903 86.4865ZM72.2323 125.841C70.0934 122.204 68.7127 119.447 72.4814 119.447C72.8586 122.204 74.6203 125.461 74.9975 128.974C74.873 128.846 73.2359 127.718 72.2323 125.841ZM69.4672 130.978C66.8265 127.718 64.6876 123.081 64.1858 120.452C63.4314 115.814 67.0792 114.934 71.6024 113.682C71.6024 113.682 72.1041 115.062 70.9761 116.566C67.3283 117.567 67.0792 118.319 67.0792 120.2C67.0792 122.956 69.9689 128.346 73.6131 132.231C72.6096 132.859 71.3533 133.235 69.4672 130.978ZM62.5524 130.726C61.4207 129.222 59.6627 125.841 58.9082 123.081C58.1537 120.324 57.1465 116.439 59.0327 113.934C61.5452 110.673 68.5845 108.544 72.4814 107.664C72.4814 107.664 72.7341 109.545 71.2252 110.925C66.951 112.302 61.5452 113.306 61.1679 117.819C60.7907 122.08 62.8051 125.841 65.0648 129.474C66.3247 131.355 67.0792 132.731 67.0792 132.731C64.8158 133.359 63.9368 132.483 62.5524 130.726ZM37.9148 122.08C37.9148 122.08 38.0393 120.828 38.292 119.948C38.4165 119.572 39.0465 119.323 39.6728 119.572C42.3134 120.828 48.9755 125.965 50.9862 127.846C52.9969 129.85 55.0113 131.479 55.0113 132.731C50.7372 129.726 42.8152 123.709 37.9148 122.08ZM39.171 133.107C38.5411 133.107 38.1638 132.483 38.1638 131.227C38.1638 130.726 38.0393 129.598 38.0393 128.47C38.0393 126.465 38.5411 125.713 38.5411 125.713C42.438 127.342 45.5804 129.598 50.7372 133.483C47.2175 133.611 39.801 133.107 39.171 133.107ZM38.292 112.178C38.4165 111.553 38.5411 110.925 39.801 111.177C41.0572 111.425 47.5948 113.806 49.1 114.31C50.4845 114.686 51.4916 115.562 51.6162 117.315C52.1179 121.2 53.3742 124.585 53.7514 127.093C51.1144 123.833 42.6907 116.939 37.9148 114.686C37.9148 114.686 38.1638 113.054 38.292 112.178ZM38.1638 77.4604C38.1638 76.9601 38.6693 75.2038 39.4237 75.2038H58.6555C59.6627 75.2038 59.7872 75.7077 59.7872 75.7077C55.2603 77.9643 55.2603 84.7302 55.5131 91.624C49.4773 94.0047 42.1889 97.0134 39.4237 103.403C38.7938 105.035 38.1638 102.403 38.1638 102.403V77.4604ZM38.1638 40.4903C38.1638 40.2383 38.9183 39.8622 39.6728 40.1142C40.8045 40.4903 57.3992 46.3799 57.3992 46.3799C62.2997 51.2655 65.6948 50.7652 66.702 53.1459C64.3104 56.2788 62.1751 59.0392 61.2961 61.4199C60.6662 63.0484 65.193 65.053 65.193 65.053C64.5631 66.3054 63.1823 67.9376 61.9224 71.0705C61.9224 71.1946 61.5452 71.4466 61.2961 71.4466H40.05C39.6728 71.4466 38.1638 71.0705 38.1638 70.6944V40.4903ZM38.1638 16.048C38.1638 15.1717 38.7938 13.7915 39.2955 13.7915H60.4135C60.4135 13.7915 61.5452 13.9193 62.4278 14.5437C64.1858 17.4282 66.5738 21.5652 68.5845 24.6981C69.4672 26.2025 69.7162 27.203 68.7127 27.831C66.951 28.8315 64.8158 29.7114 62.9296 30.9639C61.2961 32.0921 60.2889 34.4728 59.5345 36.4774C58.531 39.1101 57.5238 42.3671 57.5238 42.3671C57.5238 42.3671 57.1465 42.619 56.8938 42.4949C51.8689 40.6144 42.9434 37.4816 39.4237 36.2291C38.0393 35.7252 37.9148 34.9731 37.9148 34.9731L38.1638 16.048ZM66.951 13.7915H95.361C95.361 13.7915 95.4892 14.0434 95.2364 14.2954C94.3575 15.0476 93.3503 16.1758 92.7203 16.1758C86.311 16.5519 80.4034 16.928 76.2538 18.8048C74.1185 19.6848 73.364 21.1892 72.1041 22.9418C72.1041 22.9418 71.3533 22.6935 70.5989 21.3133C70.0934 20.5611 66.8265 14.9198 66.702 14.6715C66.5738 14.4195 66.4493 13.7915 66.951 13.7915ZM74.9975 30.3358C74.9975 30.3358 76.1292 25.1984 79.0189 23.8181C83.1685 21.6894 90.7096 21.9413 90.7096 21.9413C86.9409 25.3225 81.6596 28.4554 74.9975 30.3358ZM63.6841 41.4908C63.6841 41.4908 64.4386 39.1101 65.4421 36.6052C66.072 34.8489 68.5845 33.8448 71.1006 33.2204C69.5917 35.7252 69.0899 38.9859 63.6841 41.4908ZM99.0088 23.3179C104.916 24.4462 107.176 24.8223 114.845 24.4462C120.881 24.1942 125.155 25.3225 125.782 27.7068C126.283 29.4595 124.903 31.4641 123.141 33.7206C121.13 32.0921 117.988 30.5878 113.842 29.8356C106.048 28.4554 95.6137 27.9551 84.4248 33.3446C77.7627 36.6052 72.7341 39.9864 69.339 45.7519C68.5845 47.0043 66.4493 46.2558 64.3104 44.2475C66.951 42.9951 69.9689 41.7427 72.7341 35.7252C73.4886 33.9726 74.6203 33.0926 76.001 32.5924C80.4034 30.9639 84.802 29.2076 88.3217 26.9547C92.3431 24.4462 94.2293 22.4416 99.0088 23.3179ZM101.774 17.3041C103.785 16.8002 106.799 17.4282 108.308 18.0563C110.322 19.0568 112.835 21.8135 112.835 21.8135C112.835 21.8135 109.062 22.0655 105.795 21.6894C102.525 21.3133 97.6244 20.185 97.6244 20.185C99.0088 18.8048 100.137 17.6802 101.774 17.3041ZM113.336 13.7915H131.312C131.942 13.7915 131.942 14.6715 131.565 15.2958C130.558 16.928 127.668 21.0614 127.668 21.0614C127.668 21.0614 123.895 19.6848 118.49 18.8048C117.863 18.6807 115.475 16.1758 113.465 14.2954C113.087 14.0434 113.336 13.7915 113.336 13.7915ZM133.451 71.5707C132.821 71.5707 132.696 71.0705 132.444 70.5666C131.187 67.9376 129.301 64.6769 128.045 62.1721C127.921 61.9201 127.291 59.5395 127.291 58.5353L126.789 52.3937C126.789 52.3937 126.913 51.8935 127.543 51.3933C130.686 48.8848 131.689 48.1326 132.821 47.7565C133.953 47.3804 156.202 39.9864 156.202 39.9864C157.081 39.6103 157.711 40.2383 157.711 40.2383V70.4424C157.711 70.4424 157.334 71.6949 156.708 71.6949H133.451V71.5707ZM126.159 71.6949C126.159 71.6949 127.668 73.9514 128.422 76.9601C130.18 83.7298 131.312 87.8631 132.572 92.7523C132.949 94.3808 133.828 97.7656 133.575 99.8944C132.821 104.407 132.572 106.912 132.572 106.912C132.572 106.912 131.312 105.16 130.935 102.527C130.686 101.023 130.81 99.3941 130.686 97.8898C130.18 92.8764 127.792 86.3587 126.159 78.4645C125.404 75.3316 125.657 73.0751 126.159 71.6949ZM85.9337 35.3492C92.7203 31.968 101.646 31.088 109.568 31.8402C116.479 32.4682 119.874 34.3487 120.127 35.853C120.127 35.853 115.223 34.3487 109.44 34.0967C100.265 33.7206 93.4748 34.3487 87.19 37.1055C79.6489 40.4903 72.4814 46.6282 72.4814 46.6282C72.4814 46.6282 72.4814 41.991 85.9337 35.3492ZM78.1399 45.5036C76.7555 49.1367 75.122 51.3933 73.6131 52.2696C72.7341 52.8976 71.8551 53.2737 71.8551 53.2737C71.8551 53.2737 71.2252 51.8935 72.6096 50.013C74.1185 48.3845 76.631 46.3799 78.1399 45.5036ZM61.5452 81.7215C62.4278 79.5928 63.9368 77.9642 66.4493 77.3362C66.5738 74.4553 67.7055 72.0709 69.2144 69.9422C70.7234 67.9376 70.8479 67.9376 70.8479 66.0571C70.8479 66.0571 71.9796 65.305 73.2359 64.9289C73.4886 67.4337 72.9868 68.1859 71.9796 69.8144C70.0934 72.8231 69.7162 72.5748 69.0899 76.9601C68.9617 78.0884 68.9617 78.5886 68.2073 79.0889C66.4493 80.093 65.0648 80.721 64.3104 82.7256C62.6769 86.4865 63.3068 91.4999 63.0541 96.2612C63.0541 96.7615 62.9296 97.1376 62.2997 97.3895C57.2711 99.3941 51.7407 101.399 48.3492 105.912C47.342 107.292 46.8403 108.041 45.0786 106.54C45.0786 106.54 45.3313 104.659 47.7193 102.403C50.8617 99.27 56.6448 97.2654 60.6662 95.5091C60.5417 90.2438 60.1644 85.3583 61.5452 81.7215ZM67.9582 97.5137C67.83 99.7702 67.4564 100.647 65.6948 101.15C61.4207 102.527 57.1465 104.031 53.3742 107.792C52.4952 108.669 51.3635 110.297 49.6055 108.669C51.2389 103.779 59.0327 100.898 62.9296 99.3941C64.4386 98.7661 65.3176 98.1417 65.3176 96.6373C65.4421 93.2525 64.6876 87.739 66.5738 83.4778C67.7055 81.0971 70.4707 80.721 70.8479 78.8406C71.1006 77.5882 71.1006 76.4599 71.4779 75.5799C72.4814 72.8231 73.7413 71.3188 74.6203 69.4383C75.2502 67.9376 75.8765 67.0576 75.4993 63.9247C75.4993 63.9247 76.631 63.1726 77.8872 62.6723C78.1399 65.305 78.0154 67.1854 77.1328 69.5661C76.2538 71.9468 74.7448 72.9509 73.9903 75.5799C73.6131 76.7082 73.364 78.5886 73.1113 79.7169C72.7341 81.8493 70.3462 82.3495 69.2144 84.4783C66.951 88.7431 68.2073 93.6286 67.9582 97.5137ZM109.44 38.734C104.286 38.482 97.3717 38.8581 93.603 39.9864C88.6989 41.3666 85.432 44.2475 82.4141 50.013C80.2752 54.15 77.3855 56.4066 72.9868 58.4112C71.7306 58.9114 70.4707 59.4153 69.2144 59.6636C69.2144 58.7873 70.2216 56.9068 72.3569 55.9027C75.8765 54.2742 77.7627 52.2696 79.7734 48.7606C83.2931 42.3671 88.1971 39.2342 92.8485 37.7298C97.2472 36.3533 103.909 36.1013 109.568 36.3533C117.739 36.7294 123.141 38.8581 125.28 41.6149C125.533 41.991 125.657 42.3671 125.533 42.9951C123.518 41.6149 119.372 39.2342 109.44 38.734ZM114.845 54.5261C114.974 53.6498 116.354 53.1459 117.233 52.8976C119.12 52.3937 121.006 53.1459 121.13 54.5261C121.13 55.9027 120.629 56.5307 120.629 56.5307C119.75 55.2783 118.618 54.15 114.845 54.5261ZM116.354 62.9243C117.739 62.7965 119.621 62.0443 118.867 60.0397C117.611 60.4158 116.479 60.4158 115.724 59.5395C116.607 59.1634 117.863 58.6631 118.241 57.4071C118.241 57.4071 118.365 57.2829 118.49 57.4071C118.995 58.0351 119.244 58.9114 119.874 59.2875C120.376 59.6636 122.009 58.1592 122.009 58.1592C123.269 63.9247 121.13 68.8139 120.504 73.1992C119.372 72.3229 119.244 72.3229 117.863 71.9468C117.988 69.5661 117.863 69.3142 116.354 62.9243ZM138.729 13.7915H155.701C155.953 13.7915 157.587 14.2954 157.587 14.7956V34.7248C157.587 34.7248 157.334 35.7252 156.202 36.1013C153.06 37.1055 136.469 42.4949 133.451 43.4954C133.074 43.6231 132.319 43.6232 132.066 42.9951C131.063 40.1142 129.177 37.6057 128.924 37.2296C128.547 36.7294 128.8 35.9772 129.177 35.225C130.056 33.8448 131.187 32.2163 131.689 30.5878C132.572 27.7068 131.187 25.0742 130.935 23.5698C130.81 22.9418 130.81 22.8177 131.44 21.8135C131.44 21.8135 134.96 16.4241 135.963 15.1717C136.718 14.2954 137.348 13.7915 138.729 13.7915Z" fill="white" stroke="white" stroke-width="4"></path>
  <path d="M223.456 131.355L222.2 129.726C221.318 130.475 220.439 130.727 219.307 130.727C217.798 130.727 216.542 129.974 215.787 128.47C215.41 127.594 215.157 126.465 215.157 124.585C215.157 122.704 215.41 121.452 216.04 120.452C216.666 119.196 217.798 118.571 219.182 118.571C220.186 118.571 221.069 118.819 221.823 119.447L223.079 117.691C222.2 116.939 220.691 116.439 219.182 116.439C216.666 116.439 214.531 117.819 213.399 120.075C212.645 121.452 212.392 122.956 212.392 124.837C212.392 127.093 213.022 128.974 214.154 130.35C215.41 131.855 217.043 132.607 219.182 132.607C220.816 132.731 222.2 132.231 223.456 131.355Z" fill="white"></path>
  <path d="M230.119 122.832H233.009L233.386 120.952H224.46V122.832H227.603V132.483H230.119V122.832Z" fill="white"></path>
  <path d="M244.952 126.717C244.952 123.08 243.066 120.7 239.799 120.7C236.781 120.7 234.77 123.08 234.77 126.717C234.77 130.474 236.781 132.731 239.799 132.731C242.941 132.731 244.952 130.474 244.952 126.717ZM242.187 126.717C242.187 129.598 241.308 130.851 239.923 130.851C238.414 130.851 237.535 129.85 237.535 126.465C237.535 123.708 238.165 122.456 239.799 122.456C241.179 122.58 242.187 123.456 242.187 126.717Z" fill="white"></path>
  <path d="M248.219 120.952L247.087 132.483H249.35L249.856 125.713C249.856 125.213 249.856 124.209 249.856 123.833H249.98C250.105 124.337 250.229 124.961 250.482 125.841L252.621 132.483H254.632L256.895 125.589C257.02 125.461 257.144 124.713 257.397 123.833H257.521C257.521 124.961 257.521 125.337 257.521 125.713L258.151 132.483H260.539L259.408 120.952H256.39L254.503 127.094C254.379 127.718 254.13 128.222 253.877 129.222C253.753 128.346 253.5 127.846 253.247 127.094L251.361 121.076L248.219 120.952Z" fill="white"></path>
  <path d="M272.985 131.354C272.106 130.726 271.977 130.226 271.977 128.722V125.461C271.977 123.708 271.977 123.08 271.853 122.58C271.351 121.328 270.091 120.7 268.333 120.7C266.572 120.7 265.191 121.2 263.429 122.204L264.561 123.96C264.561 123.96 266.323 122.704 267.956 122.704C269.34 122.704 269.59 123.456 269.59 124.713V125.337H268.835C265.191 125.337 263.18 126.717 263.18 129.35C263.18 131.354 264.312 132.731 266.949 132.731C268.209 132.731 269.212 132.355 270.091 131.354C270.344 132.107 270.974 132.607 271.728 132.859L272.985 131.354ZM269.465 127.093V129.85C268.963 130.602 268.209 130.978 267.326 130.978C266.323 130.978 265.693 130.35 265.693 129.222C265.693 127.718 266.447 127.093 268.963 127.093C269.212 127.093 269.465 127.093 269.465 127.093Z" fill="white"></path>
  <path d="M279.647 122.832H282.665L283.042 120.952H274.117V122.832H277.259V132.483H279.647V122.832Z" fill="white"></path>
  <path d="M294.605 126.717C294.605 123.08 292.722 120.7 289.451 120.7C286.434 120.7 284.423 123.08 284.423 126.717C284.423 130.474 286.434 132.731 289.451 132.731C292.594 132.731 294.605 130.474 294.605 126.717ZM291.839 126.717C291.839 129.598 290.96 130.851 289.58 130.851C288.071 130.851 287.188 129.85 287.188 126.465C287.188 123.708 287.818 122.456 289.451 122.456C290.836 122.58 291.839 123.456 291.839 126.717Z" fill="white"></path>
  <path d="M298.501 120.952L298.377 123.081C298.252 124.461 298.252 125.337 298.124 126.842C297.999 128.222 297.999 129.598 297.245 130.226C296.996 130.475 296.49 130.727 296.113 130.851L295.611 130.979L296.113 132.731L296.743 132.607C297.369 132.483 298.377 132.483 299.131 131.731C299.761 131.103 299.885 130.226 300.01 129.598C300.138 128.722 300.263 127.342 300.387 126.717C300.515 125.713 300.515 124.713 300.64 124.085L300.764 122.832H303.405V132.483H305.918V120.952H298.501Z" fill="white"></path>
  <path d="M318.615 126.717C318.615 123.08 316.729 120.7 313.462 120.7C310.444 120.7 308.434 123.08 308.434 126.717C308.434 130.474 310.444 132.731 313.462 132.731C316.476 132.731 318.615 130.474 318.615 126.717ZM315.85 126.717C315.85 129.598 314.971 130.851 313.587 130.851C312.078 130.851 311.199 129.85 311.199 126.465C311.199 123.708 311.829 122.456 313.462 122.456C314.971 122.58 315.85 123.456 315.85 126.717Z" fill="white"></path>
  <path d="M323.768 122.832H328.171L328.42 120.952H321.256V132.483H323.768V122.832Z" fill="white"></path>
  <path d="M330.431 132.483H333.071L336.214 126.841C336.591 126.213 337.093 125.213 337.345 124.337C337.221 125.461 337.221 126.213 337.221 127.342V132.607H339.733V120.828L337.093 121.328L334.079 126.841C333.701 127.469 333.196 128.346 332.819 129.474C332.819 128.722 332.947 127.718 332.947 126.841V120.828L330.431 121.328V132.483Z" fill="white"></path>
  <path d="M348.406 121.2V126.089C347.78 126.465 347.15 126.465 346.648 126.465C346.271 126.465 345.769 126.341 345.392 126.089C344.886 125.713 344.886 125.089 344.886 124.713V120.7L342.374 121.2V125.089C342.374 125.841 342.374 126.717 343.253 127.469C344.007 128.222 345.264 128.346 346.018 128.346C346.897 128.346 347.527 128.222 348.406 127.845V132.483H350.922V120.7L348.406 121.2Z" fill="white"></path>
  <path d="M363.114 127.342V126.841C363.114 124.209 362.613 122.704 361.605 121.828C360.602 120.952 359.595 120.7 358.463 120.7C356.954 120.7 355.822 121.2 354.943 122.204C353.94 123.332 353.562 124.713 353.562 126.717C353.562 130.474 355.573 132.731 358.84 132.731C360.349 132.731 361.734 132.231 362.99 131.227L361.983 129.726C361.104 130.474 360.225 130.851 359.093 130.851C356.829 130.851 356.199 129.222 356.199 127.593V127.342H363.114ZM360.602 125.461H356.328C356.328 123.584 357.082 122.456 358.463 122.456C359.719 122.58 360.602 123.584 360.602 125.461ZM374.05 131.227L372.919 129.726C372.164 130.474 371.41 130.851 370.531 130.851C369.905 130.851 369.399 130.602 369.022 130.226C368.52 129.598 368.267 128.722 368.267 127.093C368.267 125.713 368.396 124.585 368.773 123.833C369.15 123.08 369.776 122.704 370.531 122.704C371.161 122.704 371.787 122.956 372.417 123.584L373.673 121.956C372.67 120.952 371.787 120.7 370.531 120.7C367.89 120.7 365.502 122.704 365.502 126.841C365.502 130.602 367.264 132.731 370.406 132.731C371.915 132.731 372.919 132.231 374.05 131.227Z" fill="white"></path>
  <path d="M376.19 132.483H378.702V127.342H379.709C380.087 127.342 380.464 127.342 380.841 127.594C381.09 127.846 381.218 128.346 381.343 128.722L381.72 130.351C381.845 130.727 381.969 131.479 382.475 131.855C383.101 132.483 383.855 132.483 384.61 132.483L385.364 132.607L385.87 130.851L385.364 130.727C385.24 130.727 384.862 130.602 384.61 130.351C384.485 130.226 384.361 130.102 384.233 129.598L383.606 127.846C383.478 127.47 383.229 126.966 382.976 126.59C382.852 126.465 382.475 126.214 382.097 126.089C382.599 125.965 382.976 125.713 382.976 125.589C383.229 125.337 383.478 124.961 383.606 124.585L383.983 123.333C384.108 123.081 384.108 122.705 384.361 122.58C384.61 122.456 384.738 122.328 384.987 122.328L385.617 122.204L385.115 120.452L384.233 120.576C383.354 120.7 382.852 120.7 382.346 121.2C381.969 121.576 381.845 122.08 381.72 122.58L381.467 123.833C381.343 124.337 381.218 124.713 380.966 124.961C380.588 125.337 380.087 125.337 379.709 125.337H378.578V120.576L376.062 121.076V132.483H376.19Z" fill="white"></path>
  <path d="M397.934 131.354C397.055 130.726 396.931 130.226 396.931 128.722V125.461C396.931 123.708 396.931 123.08 396.806 122.58C396.301 121.328 395.045 120.7 393.287 120.7C391.525 120.7 390.144 121.2 388.383 122.204L389.514 123.96C389.514 123.96 391.272 122.704 392.909 122.704C394.29 122.704 394.543 123.456 394.543 124.713V125.337H393.788C390.144 125.337 388.13 126.717 388.13 129.35C388.13 131.354 389.262 132.731 391.902 132.731C393.158 132.731 394.166 132.355 395.045 131.354C395.297 132.107 395.924 132.607 396.678 132.859L397.934 131.354ZM394.415 127.093V129.85C393.913 130.602 393.158 130.978 392.279 130.978C391.272 130.978 390.646 130.35 390.646 129.222C390.646 127.718 391.4 127.093 393.913 127.093C394.166 127.093 394.415 127.093 394.415 127.093Z" fill="white"></path>
  <path d="M409.376 120.952H405.102C403.97 120.952 402.714 121.076 401.707 121.952C401.329 122.328 400.828 123.081 400.828 124.209C400.828 125.089 401.205 125.713 401.582 126.214C401.959 126.59 402.586 126.966 403.34 127.093C402.963 127.218 402.714 127.342 402.336 127.594C401.959 127.846 401.831 128.222 401.707 128.598L401.329 129.598C401.205 129.974 401.077 130.226 400.828 130.475C400.703 130.602 400.45 130.727 399.949 130.851L399.571 130.979L399.949 132.731L400.828 132.607C401.329 132.607 402.336 132.483 402.963 131.855C403.34 131.479 403.468 130.979 403.593 130.475L403.97 129.35C404.094 128.974 404.094 128.598 404.472 128.222C404.849 127.846 405.226 127.846 405.728 127.846H406.735V132.355H409.248L409.376 120.952ZM406.988 122.832V126.214H405.479C404.849 126.214 404.223 125.965 403.97 125.713C403.593 125.337 403.468 124.837 403.468 124.461C403.468 124.085 403.593 123.585 403.97 123.208C404.472 122.832 405.102 122.832 405.479 122.832H406.988ZM418.173 132.483H420.689V127.342H421.693C422.07 127.342 422.447 127.342 422.824 127.594C423.077 127.846 423.202 128.346 423.33 128.722L423.707 130.351C423.832 130.727 423.956 131.479 424.462 131.855C425.088 132.483 425.842 132.483 426.597 132.483L427.351 132.607L427.853 130.851L427.351 130.727C427.227 130.727 426.85 130.602 426.597 130.351C426.472 130.226 426.344 130.102 426.22 129.598L425.59 127.846C425.465 127.47 425.212 126.966 424.963 126.59C424.835 126.465 424.462 126.214 424.084 126.089C424.586 125.965 424.963 125.713 424.963 125.589C425.212 125.337 425.465 124.961 425.59 124.585L425.967 123.333C426.095 123.081 426.095 122.705 426.344 122.58C426.597 122.456 426.721 122.328 426.974 122.328L427.604 122.204L427.099 120.452L426.22 120.576C425.341 120.7 424.835 120.7 424.333 121.2C423.956 121.576 423.832 122.08 423.707 122.58L423.454 123.833C423.33 124.337 423.202 124.713 422.953 124.961C422.575 125.337 422.07 125.337 421.693 125.337H420.561V120.576L418.049 121.076V132.483H418.173Z" fill="white"></path>
  <path d="M432.127 120.952L432.003 123.081C431.878 124.461 431.878 125.337 431.75 126.842C431.626 128.222 431.626 129.598 430.871 130.226C430.619 130.475 430.117 130.727 429.74 130.851L429.238 130.979L429.74 132.731L430.37 132.607C430.996 132.483 432.003 132.483 432.757 131.731C433.387 131.103 433.512 130.226 433.636 129.598C433.761 128.722 433.889 127.342 434.014 126.717C434.138 125.713 434.138 124.713 434.266 124.085L434.391 122.832H437.032V132.483H439.544V120.952H432.127Z" fill="white"></path>
  <path d="M442.686 132.483H445.327L448.469 126.841C448.846 126.213 449.348 125.213 449.601 124.337C449.476 125.461 449.476 126.213 449.476 127.342V132.607H451.989V120.828L449.348 121.328L446.334 126.841C445.957 127.469 445.451 128.346 445.078 129.474C445.078 128.722 445.202 127.718 445.202 126.841V120.828L442.686 121.328V132.483Z" fill="white"></path>
  <path d="M458.025 127.342H461.922V132.483H464.434V120.7L461.922 121.2V125.461H458.025V120.7L455.509 121.2V132.483H458.025V127.342Z" fill="white"></path>
  <path d="M467.829 132.483H470.47L473.612 126.841C473.989 126.213 474.491 125.213 474.744 124.337C474.616 125.461 474.616 126.213 474.616 127.342V132.607H477.132V120.828L474.491 121.328L471.473 126.841C471.096 127.469 470.594 128.346 470.217 129.474C470.217 128.722 470.342 127.718 470.342 126.841V120.828L467.829 121.328V132.483Z" fill="white"></path>
  <path d="M480.523 132.483H483.04V127.342H484.043C484.42 127.342 484.798 127.342 485.175 127.594C485.428 127.846 485.552 128.346 485.68 128.722L486.057 130.351C486.182 130.727 486.307 131.479 486.812 131.855C487.438 132.483 488.193 132.483 488.947 132.483L489.702 132.607L490.203 130.851L489.702 130.727C489.577 130.727 489.2 130.602 488.947 130.351C488.823 130.226 488.694 130.102 488.57 129.598L487.94 127.846C487.815 127.47 487.563 126.966 487.314 126.59C487.186 126.465 486.812 126.214 486.435 126.089C486.936 125.965 487.314 125.713 487.314 125.589C487.563 125.337 487.815 124.961 487.94 124.585L488.317 123.333C488.445 123.081 488.445 122.705 488.694 122.58C488.947 122.456 489.072 122.328 489.324 122.328L489.954 122.204L489.449 120.452L488.57 120.576C487.691 120.7 487.186 120.7 486.684 121.2C486.307 121.576 486.182 122.08 486.057 122.58L485.805 123.833C485.68 124.337 485.552 124.713 485.303 124.961C484.926 125.337 484.42 125.337 484.043 125.337H482.911V120.576L480.399 121.076V132.483H480.523ZM501.77 131.355C500.891 130.727 500.762 130.226 500.762 128.722V125.461C500.762 123.709 500.762 123.081 500.638 122.58C500.136 121.328 498.876 120.7 497.118 120.7C495.36 120.7 493.976 121.2 492.214 122.204L493.346 123.961C493.346 123.961 495.107 122.705 496.741 122.705C498.125 122.705 498.374 123.457 498.374 124.713V125.337H497.62C493.976 125.337 491.965 126.717 491.965 129.35C491.965 131.355 493.097 132.731 495.734 132.731C496.994 132.731 497.997 132.355 498.876 131.355C499.129 132.107 499.759 132.607 500.513 132.859L501.77 131.355ZM498.374 127.093V129.85C497.873 130.602 497.118 130.979 496.239 130.979C495.232 130.979 494.606 130.351 494.606 129.222C494.606 127.718 495.36 127.093 497.873 127.093C498.125 127.093 498.374 127.093 498.374 127.093Z" fill="white"></path>
  <path d="M257.774 91.7484H247.087V41.8671H235.901C234.77 60.2919 233.008 76.7084 230.62 84.6063C229.364 88.3636 227.602 89.9957 224.965 91.3723C222.2 92.7525 218.929 93.2528 214.908 93.2528C209.378 93.2528 207.114 90.496 207.114 87.615C207.239 84.1024 210.509 81.3456 210.509 81.3456C213.022 83.3539 217.043 86.987 218.805 86.987C221.695 86.987 224.46 62.2965 225.592 36.8537L257.898 36.1016V91.7484H257.774Z" fill="white"></path>
  <path d="M419.056 91.7483H408.368V65.9295H385.994V91.7483H375.307V36.7295L385.994 35.9773V60.4159H408.368V36.7295L419.056 35.9773V91.7483Z" fill="white"></path>
  <path d="M557.707 86.2348V41.7429H546.77C546.77 41.7429 545.891 57.2831 542.749 71.947C541.368 78.3406 538.35 83.9783 536.211 86.6109L557.707 86.2348ZM575.558 91.2481V103.155L568.643 103.907C568.643 103.907 566.383 95.6334 562.863 91.6242H531.183C527.161 94.2569 527.161 103.027 527.161 103.027L520.877 103.78L517.481 90.9962C517.481 90.9962 522.133 88.3636 524.649 85.7346C528.169 82.3498 531.311 77.0845 532.443 71.319C535.585 56.1549 536.589 36.6055 536.589 36.6055L568.141 35.8533L568.269 85.9829C568.394 86.1107 573.045 88.2394 575.558 91.2481Z" fill="white"></path>
  <path d="M307.679 91.7483H271.6V36.7295L308.434 35.9773L306.8 41.8669H282.163V59.9157H302.775L301.142 65.4292H282.163V85.8586L310.067 85.4825L307.679 91.7483Z" fill="white"></path>
  <path d="M457.896 70.0663L449.853 48.3845L440.928 70.0663H457.896ZM476.879 91.7481H465.565L459.53 75.5799H438.917L432.255 91.7481H426.095L449.348 35.9772L456.64 35.1008L476.879 91.7481Z" fill="white"></path>
  <path d="M505.289 43.4955C502.272 41.4909 498.25 41.2426 496.111 41.2426V62.5483C496.111 62.5483 499.631 62.4205 502.019 62.1722C504.41 61.7961 506.421 61.1681 507.93 59.4154C510.567 56.1547 510.944 47.5083 505.289 43.4955ZM496.111 67.3097V91.7483H485.552V36.7295C485.552 36.7295 498.25 35.9773 503.026 35.9773C507.802 35.9773 512.204 37.3539 515.471 40.2384C518.991 43.1194 520.624 46.7561 520.624 50.8931C520.624 60.2917 515.347 65.8053 506.044 67.1855C502.019 67.6858 496.111 67.3097 496.111 67.3097Z" fill="white"></path>
  <path d="M615.53 48.5086C611.509 43.1192 605.978 40.1141 600.195 40.9905C596.174 41.4907 593.284 44.2475 591.65 49.3886C589.259 56.7826 589.387 70.6943 595.544 79.2166C599.569 84.8543 604.722 87.6148 610.501 87.2387C615.281 86.8626 618.548 83.3536 620.057 77.9642C622.448 69.19 621.317 56.5307 615.53 48.5086ZM632 62.7964C632 81.3454 622.192 93.1283 605.224 93.1283C598.562 93.1283 590.892 90.1196 585.992 84.1022C581.216 78.3403 579.202 71.4465 579.202 64.5527C579.202 55.7785 581.718 48.5086 586.871 42.9951C592.024 37.2296 599.067 34.3486 607.864 34.3486C618.171 34.4728 632 43.4953 632 62.7964Z" fill="white"></path>
  <path d="M349.791 48.5086C345.769 43.1192 340.235 40.1141 334.456 40.9905C330.431 41.4907 327.541 44.2475 325.908 49.3886C323.52 56.7826 323.644 70.6943 329.676 79.2166C333.826 84.8543 338.854 87.6148 344.762 87.2387C349.538 86.8626 352.68 83.3536 354.317 77.9642C356.83 69.19 355.698 56.5307 349.791 48.5086ZM366.385 62.7964C366.385 81.3454 356.577 93.1283 339.609 93.1283C332.819 93.1283 325.278 90.1196 320.374 84.1022C315.598 78.3403 313.587 71.4465 313.587 64.5527C313.587 55.7785 316.103 48.5086 321.128 42.9951C326.409 37.2296 333.449 34.3486 342.25 34.3486C352.556 34.4728 366.385 43.4953 366.385 62.7964Z" fill="white"></path>
  <path fill-rule="evenodd" clip-rule="evenodd" d="M60.7903 44.7514L63.9327 34.2208L72.1037 30.0875L76.7551 21.6893L94.2288 19.4328L105.293 10.2825H35.021V106.036L40.4268 108.417L44.3237 101.15L57.9006 93.7527L58.4023 81.0971L62.8047 75.8318L68.0823 63.9247L64.6872 60.2916L68.8368 54.5261L67.7051 49.7647L60.7903 44.7514Z" fill="#6EA09F"></path>
  <path fill-rule="evenodd" clip-rule="evenodd" d="M105.294 10.4102L114.593 20.561L127.921 24.0699L129.177 29.4593L125.405 36.229L129.43 44.7513L124.526 49.0124L125.782 65.4289L131.063 74.4551L135.462 95.257L140.743 100.646L147.405 111.553L161.107 116.314V10.4102H105.294Z" fill="#6EA09F"></path>
  <path fill-rule="evenodd" clip-rule="evenodd" d="M35.021 106.036V135.491H61.5448L57.1461 128.598L54.8827 114.686L35.021 106.036Z" fill="#925F1E"></path>
  <path fill-rule="evenodd" clip-rule="evenodd" d="M161.106 116.315V135.492H138.856L147.277 111.553L161.106 116.315Z" fill="#925F1E"></path>
  <path fill-rule="evenodd" clip-rule="evenodd" d="M76.7553 21.6893L72.104 30.0875L63.9329 34.2208L60.7905 44.7514L67.7053 49.7647L68.837 54.5261L64.6874 60.2916L68.0825 63.9247L82.9156 57.9109L84.4246 50.5169L89.4532 44.1233L99.2577 41.4907L110.322 41.3666L121.383 42.9951L124.525 49.0125L129.429 44.7514L125.404 36.2291L129.177 29.4594L127.92 24.07L114.593 20.5611L105.293 10.2825L94.2291 19.4328L76.7553 21.6893Z" fill="#925F1E"></path>
  <path d="M157.587 109.169C157.587 110.925 156.957 111.553 156.957 111.553C156.957 111.553 152.807 109.545 148.661 107.664C147.782 104.283 145.768 99.5183 141.746 94.2566C140.113 92.0001 137.472 88.6153 136.593 85.2305C135.209 80.2171 134.205 75.7077 134.205 75.7077C134.205 75.7077 134.454 75.2038 135.209 75.2038H155.576C156.202 75.2038 157.587 76.0838 157.587 76.584C157.587 80.2171 157.587 108.292 157.587 109.169ZM164.751 137.244V9.4062C164.626 8.02963 163.242 6.77356 161.355 6.64941H34.2669C32.7617 6.64941 31 7.65354 31 9.53034V137.368C31 138.749 32.7617 140.001 33.8897 140.001H161.106C162.864 140.001 164.626 139.125 164.751 137.244ZM156.33 130.475C156.078 132.231 155.323 132.107 154.444 132.107C151.679 132.231 152.305 132.355 149.917 132.355C149.917 132.355 152.807 125.461 153.437 123.833C154.316 121.576 154.946 120.075 154.946 120.075C156.455 120.952 156.832 121.2 156.957 122.204C156.957 122.832 156.58 128.974 156.33 130.475ZM143.885 132.231C143.508 130.226 144.512 128.094 145.266 126.089C147.028 120.952 147.782 117.443 148.533 115.687C148.786 115.186 149.038 114.81 149.793 115.062C151.551 115.562 152.935 116.315 152.935 116.315C149.917 124.461 146.522 132.231 146.522 132.231H143.885ZM140.743 122.832C139.736 120.452 139.483 118.319 140.113 115.062C140.992 110.297 140.867 106.54 141.245 106.036C141.871 106.664 142.754 108.417 143.003 110.297C143.633 113.806 141.245 121.704 140.743 122.832ZM137.095 114.434C136.341 112.806 135.462 111.926 135.209 109.169C135.084 107.04 135.714 105.16 136.092 101.15C136.216 99.7702 136.593 98.6419 136.718 98.0176C137.348 98.39 137.6 99.3941 138.102 101.15C138.857 104.407 137.472 113.306 137.095 114.434ZM132.949 127.218C132.696 123.457 129.679 119.447 129.301 116.566C129.177 115.31 129.429 113.806 130.056 112.806C130.056 112.806 131.942 117.067 133.074 119.071C134.33 121.328 135.586 123.833 135.839 126.966C136.092 129.85 136.216 132.859 136.216 132.859C133.451 132.983 133.198 132.731 132.949 127.218ZM130.433 132.983C127.543 132.983 127.291 132.607 127.038 127.218C126.913 123.208 124.148 120.576 123.646 117.191C123.141 113.682 125.155 110.425 126.789 108.041C128.547 110.673 126.536 113.182 126.412 115.062C126.034 119.572 129.554 122.456 130.18 127.218C130.433 129.85 130.433 132.983 130.433 132.983ZM124.525 132.983C121.508 132.983 121.383 132.483 121.258 127.218C121.13 123.457 118.116 119.572 118.116 116.187C117.988 110.925 121.508 107.292 122.262 103.279C122.892 99.7702 119.497 88.8672 118.995 86.9868C118.742 86.2346 117.233 84.7302 117.233 84.23C117.233 83.3537 117.988 82.7256 117.863 80.5932C117.863 79.0889 117.486 77.0843 117.486 77.0843C118.995 77.4604 120.629 80.5932 121.13 82.6015C121.636 84.23 122.515 87.2387 123.141 89.6194C123.771 91.876 125.657 99.018 125.404 102.651C125.155 106.54 120.881 110.801 121.006 115.814C121.006 120.075 123.895 122.956 124.401 127.093C124.525 129.85 124.525 132.983 124.525 132.983ZM118.742 132.983C115.977 132.983 115.724 132.231 115.6 127.342C115.475 123.081 112.71 119.948 112.333 116.187C111.828 110.549 116.732 106.912 116.856 102.279C116.856 98.7661 114.344 91.4999 114.468 86.9868C116.102 86.8626 116.479 88.2392 116.984 89.9955C117.988 93.0042 119.372 99.1422 119.372 102.403C119.244 107.664 114.974 110.049 115.223 116.315C115.347 120.324 118.49 123.833 118.742 127.469C118.867 129.598 118.742 132.983 118.742 132.983ZM113.087 132.983C109.941 132.983 109.941 132.107 109.817 127.342C109.692 123.709 107.304 120.324 106.927 116.439C106.297 111.425 110.949 106.788 111.326 102.779C111.578 99.6461 110.571 97.1376 109.941 93.6286C109.692 92.0001 109.568 87.9909 109.692 86.4865C111.578 86.3587 112.205 87.8631 112.205 88.9914C112.205 90.4957 112.333 92.0001 112.582 93.5045C113.087 96.3854 114.091 99.27 114.091 102.279C114.091 107.04 109.191 110.297 109.941 116.315C110.322 120.324 112.582 123.081 112.959 127.342C113.212 129.598 113.087 132.983 113.087 132.983ZM103.785 127.218C103.532 123.332 101.774 119.824 101.397 116.439C101.02 112.93 101.774 110.549 103.279 107.916C104.286 106.036 105.543 104.784 105.795 102.779C106.048 100.774 105.418 98.7661 105.041 96.7615C104.664 94.3808 105.041 86.4865 105.041 86.4865C102.653 86.7348 102.151 92.5003 102.4 96.1371C102.525 98.5178 103.532 101.15 103.155 103.279C102.906 105.035 101.269 106.164 100.39 107.792C99.1333 110.049 98.5034 112.806 98.7561 116.439C99.0088 120.452 100.767 123.081 101.269 127.218C101.521 129.474 101.397 132.859 101.397 132.859C98.2543 132.859 98.3789 131.731 98.1262 127.342C97.8771 123.457 95.6137 120.828 95.2364 117.067C94.8592 113.43 95.6137 110.049 97.2472 107.54C98.0016 106.288 99.5106 105.035 100.012 103.403C100.767 100.898 99.1333 96.5132 99.6351 92.6281C100.265 88.115 102.023 81.8493 103.155 80.9693C105.795 81.3454 107.176 80.5932 108.308 80.3449C109.062 80.3449 109.817 81.2213 110.699 81.2213C111.828 81.2213 112.71 80.5932 113.465 79.9689C114.091 80.3449 114.344 80.9693 113.966 81.5974C113.336 82.6015 112.457 83.4778 112.457 83.4778C110.194 83.9781 107.304 83.2259 106.674 83.602C107.682 86.2346 106.799 89.4916 107.176 93.0042C107.553 96.5132 108.685 99.7702 108.561 102.279C108.436 103.907 107.052 106.036 106.297 107.792C105.165 110.173 103.785 112.554 104.162 116.315C104.539 120.324 106.55 122.832 106.927 127.093C107.052 129.35 107.176 132.859 107.176 132.859C104.162 132.983 104.162 131.855 103.785 127.218ZM94.1047 104.784C93.7275 101.527 92.4713 97.7656 92.7203 94.3808C92.8485 92.5003 93.852 90.1196 94.482 87.8631C95.1083 85.2305 96.1154 81.3454 97.3717 79.5928C98.5034 77.9643 100.137 76.9601 102.906 75.7077C104.411 75.0797 105.165 74.5794 105.92 73.4512C104.539 72.699 103.532 72.8231 102.525 73.4512C101.774 73.9514 100.891 74.3275 100.012 74.8277C95.9909 76.7082 94.6065 78.8406 93.3503 82.7256C92.973 83.7298 92.5958 85.6066 92.2186 87.487C91.8413 89.6194 90.4606 91.7482 90.2078 93.6286C89.5779 97.7656 92.2186 104.031 91.7168 109.545C91.5886 111.425 90.8341 113.182 90.8341 114.934C90.7096 119.824 93.603 124.337 93.9802 128.846C94.1047 129.726 94.1047 130.475 94.1047 131.479C94.1047 132.483 93.2257 133.235 91.3396 133.235C91.3396 133.235 91.4641 131.103 91.215 128.722C90.7096 124.209 88.1971 119.572 87.6917 116.187C87.3145 113.43 89.0761 110.925 88.9516 106.788C88.8234 102.527 86.8127 97.1376 87.6917 93.1284C88.1971 90.7477 89.8306 88.8672 90.2078 86.6107C90.4606 84.9822 91.0868 82.0976 91.7168 80.5932C92.2186 79.2167 93.4748 77.4604 94.3575 75.956C95.2364 74.2033 95.9909 72.447 93.9802 71.3188C93.4748 72.3229 92.8485 73.8273 92.2186 74.9555C91.3396 76.584 90.0833 77.9643 89.4534 79.5928C88.4462 81.8493 88.5744 83.4778 88.069 85.8585C87.4427 88.2392 85.8092 89.8677 85.3038 92.252C84.4248 96.6373 86.4355 101.775 86.4355 106.54C86.311 109.421 84.6775 112.806 84.9265 115.687C85.3038 120.2 87.6917 123.961 88.4462 128.598C88.5744 129.474 88.6989 130.35 88.6989 131.479C88.6989 132.859 87.4427 133.235 86.0582 133.235C86.0582 133.235 86.0582 131.103 85.8092 128.722C85.1792 123.709 82.4141 120.452 82.2895 115.438C82.2895 112.806 83.5458 109.297 83.7948 106.412C84.0475 101.399 81.7841 96.0093 83.044 91.2479C83.6703 88.7431 85.1792 88.2392 86.0582 85.6066C86.6882 83.4778 86.8127 80.4691 87.4427 78.7128C87.9444 77.2121 89.3289 75.956 90.3324 74.0792C91.3396 72.0709 91.9658 70.3183 89.9551 68.6898C89.4534 69.6903 88.9516 71.8227 88.3217 73.0751C87.3145 74.9555 85.9337 75.956 85.0547 77.7123C84.0475 79.8411 84.1721 82.6015 83.5458 84.9822C83.044 87.1109 81.2824 87.9909 80.6524 90.2438C79.1471 95.2571 81.2824 101.15 81.0296 106.036C80.9051 108.417 79.5207 112.178 79.5207 114.81C79.3962 119.699 82.2895 123.709 82.9158 128.598C83.044 129.474 83.1685 130.726 83.1685 131.479C83.1685 132.859 81.6596 133.235 80.2752 133.235C80.2752 133.235 80.2752 131.227 79.8979 128.846C79.2716 123.833 76.5065 120.075 76.7555 114.434C76.8837 111.801 78.3926 108.417 78.3926 105.66C78.3926 100.647 76.631 93.6286 78.3926 89.2433C79.0189 87.6148 80.9051 85.8585 81.2824 84.6061C81.5351 83.4778 81.7841 81.7215 82.0368 80.4691C82.2895 79.2167 82.5386 77.8365 83.1685 76.7082C84.5493 73.6995 86.9409 72.699 87.19 68.4378C87.4427 63.5487 86.5637 57.031 87.6917 53.1459C89.2007 48.1326 92.8485 45.8797 97.1226 45.2517C104.539 44.1234 114.215 44.3753 119.874 45.8797C120.504 47.8843 122.764 50.1408 122.39 51.3933C122.39 51.3933 121.383 50.6411 120.127 50.5169C118.49 50.3891 116.984 50.893 114.344 51.2655C113.714 51.3933 113.087 51.2655 112.457 51.2655C111.578 51.2655 111.326 51.3933 111.326 53.1459C111.201 54.6503 110.824 56.0305 111.073 57.5349C111.326 58.6631 112.333 59.6636 112.835 60.916C113.212 62.0443 113.336 63.9247 113.714 65.5533C114.468 68.8139 115.475 70.6944 112.835 72.447C111.326 71.1946 107.304 68.0617 106.799 72.0709C108.059 72.447 109.568 72.8231 110.447 73.5753C110.322 74.3275 110.322 75.956 110.447 76.3321C110.571 76.836 111.326 77.2121 111.956 77.0843C112.457 76.3321 112.457 74.7036 113.966 74.8277C114.468 76.3321 114.091 78.9647 112.333 79.0889C111.201 79.2167 110.699 78.0884 109.568 77.9642C108.183 77.8365 107.176 79.0889 105.671 79.0889C105.294 78.9647 105.418 78.5886 105.418 78.2125C105.418 77.8365 105.294 77.4604 104.788 77.5882C102.276 78.3403 100.265 79.7169 99.2579 81.9735C98.5034 83.602 97.8771 86.4865 97.2472 88.6153C96.24 91.876 95.361 93.7528 95.9909 98.1417C95.9909 100.898 96.6172 103.403 94.1047 104.784ZM73.9903 86.4865C72.7341 88.6153 72.6096 91.876 72.8586 95.2571C72.9868 98.2658 73.9903 104.156 70.5989 105.16C67.2037 106.164 63.6841 107.54 60.7907 108.793C58.6555 109.797 56.3921 111.677 54.6341 110.673C56.8938 106.412 62.6769 104.908 67.4564 103.279C70.2216 102.279 70.3462 100.774 70.4707 98.6419C70.7234 94.7569 69.8444 88.6153 71.3533 85.4824C72.2323 83.7298 74.6203 82.8498 74.9975 80.8452C75.3748 79.3408 75.6238 77.0843 76.3783 75.0797C77.3855 72.5748 79.0189 71.0705 79.6489 68.562C80.1506 66.5574 80.2752 63.9247 80.0261 61.4199C80.0261 61.4199 80.9051 60.6677 82.2895 60.1675C82.5386 63.8006 82.6668 65.5533 82.1614 68.8139C81.7841 70.9427 79.8979 72.9509 78.8944 74.9555C77.3855 77.7123 77.8872 80.721 76.7555 83.1017C76.2538 84.4783 74.873 85.2305 73.9903 86.4865ZM72.2323 125.841C70.0934 122.204 68.7127 119.447 72.4814 119.447C72.8586 122.204 74.6203 125.461 74.9975 128.974C74.873 128.846 73.2359 127.718 72.2323 125.841ZM69.4672 130.978C66.8265 127.718 64.6876 123.081 64.1858 120.452C63.4314 115.814 67.0792 114.934 71.6024 113.682C71.6024 113.682 72.1041 115.062 70.9761 116.566C67.3283 117.567 67.0792 118.319 67.0792 120.2C67.0792 122.956 69.9689 128.346 73.6131 132.231C72.6096 132.859 71.3533 133.235 69.4672 130.978ZM62.5524 130.726C61.4207 129.222 59.6627 125.841 58.9082 123.081C58.1537 120.324 57.1465 116.439 59.0327 113.934C61.5452 110.673 68.5845 108.544 72.4814 107.664C72.4814 107.664 72.7341 109.545 71.2252 110.925C66.951 112.302 61.5452 113.306 61.1679 117.819C60.7907 122.08 62.8051 125.841 65.0648 129.474C66.3247 131.355 67.0792 132.731 67.0792 132.731C64.8158 133.359 63.9368 132.483 62.5524 130.726ZM37.9148 122.08C37.9148 122.08 38.0393 120.828 38.292 119.948C38.4165 119.572 39.0465 119.323 39.6728 119.572C42.3134 120.828 48.9755 125.965 50.9862 127.846C52.9969 129.85 55.0113 131.479 55.0113 132.731C50.7372 129.726 42.8152 123.709 37.9148 122.08ZM39.171 133.107C38.5411 133.107 38.1638 132.483 38.1638 131.227C38.1638 130.726 38.0393 129.598 38.0393 128.47C38.0393 126.465 38.5411 125.713 38.5411 125.713C42.438 127.342 45.5804 129.598 50.7372 133.483C47.2175 133.611 39.801 133.107 39.171 133.107ZM38.292 112.178C38.4165 111.553 38.5411 110.925 39.801 111.177C41.0572 111.425 47.5948 113.806 49.1 114.31C50.4845 114.686 51.4916 115.562 51.6162 117.315C52.1179 121.2 53.3742 124.585 53.7514 127.093C51.1144 123.833 42.6907 116.939 37.9148 114.686C37.9148 114.686 38.1638 113.054 38.292 112.178ZM38.1638 77.4604C38.1638 76.9601 38.6693 75.2038 39.4237 75.2038H58.6555C59.6627 75.2038 59.7872 75.7077 59.7872 75.7077C55.2603 77.9643 55.2603 84.7302 55.5131 91.624C49.4773 94.0047 42.1889 97.0134 39.4237 103.403C38.7938 105.035 38.1638 102.403 38.1638 102.403V77.4604ZM38.1638 40.4903C38.1638 40.2383 38.9183 39.8622 39.6728 40.1142C40.8045 40.4903 57.3992 46.3799 57.3992 46.3799C62.2997 51.2655 65.6948 50.7652 66.702 53.1459C64.3104 56.2788 62.1751 59.0392 61.2961 61.4199C60.6662 63.0484 65.193 65.053 65.193 65.053C64.5631 66.3054 63.1823 67.9376 61.9224 71.0705C61.9224 71.1946 61.5452 71.4466 61.2961 71.4466H40.05C39.6728 71.4466 38.1638 71.0705 38.1638 70.6944V40.4903ZM38.1638 16.048C38.1638 15.1717 38.7938 13.7915 39.2955 13.7915H60.4135C60.4135 13.7915 61.5452 13.9193 62.4278 14.5437C64.1858 17.4282 66.5738 21.5652 68.5845 24.6981C69.4672 26.2025 69.7162 27.203 68.7127 27.831C66.951 28.8315 64.8158 29.7114 62.9296 30.9639C61.2961 32.0921 60.2889 34.4728 59.5345 36.4774C58.531 39.1101 57.5238 42.3671 57.5238 42.3671C57.5238 42.3671 57.1465 42.619 56.8938 42.4949C51.8689 40.6144 42.9434 37.4816 39.4237 36.2291C38.0393 35.7252 37.9148 34.9731 37.9148 34.9731L38.1638 16.048ZM66.951 13.7915H95.361C95.361 13.7915 95.4892 14.0434 95.2364 14.2954C94.3575 15.0476 93.3503 16.1758 92.7203 16.1758C86.311 16.5519 80.4034 16.928 76.2538 18.8048C74.1185 19.6848 73.364 21.1892 72.1041 22.9418C72.1041 22.9418 71.3533 22.6935 70.5989 21.3133C70.0934 20.5611 66.8265 14.9198 66.702 14.6715C66.5738 14.4195 66.4493 13.7915 66.951 13.7915ZM74.9975 30.3358C74.9975 30.3358 76.1292 25.1984 79.0189 23.8181C83.1685 21.6894 90.7096 21.9413 90.7096 21.9413C86.9409 25.3225 81.6596 28.4554 74.9975 30.3358ZM63.6841 41.4908C63.6841 41.4908 64.4386 39.1101 65.4421 36.6052C66.072 34.8489 68.5845 33.8448 71.1006 33.2204C69.5917 35.7252 69.0899 38.9859 63.6841 41.4908ZM99.0088 23.3179C104.916 24.4462 107.176 24.8223 114.845 24.4462C120.881 24.1942 125.155 25.3225 125.782 27.7068C126.283 29.4595 124.903 31.4641 123.141 33.7206C121.13 32.0921 117.988 30.5878 113.842 29.8356C106.048 28.4554 95.6137 27.9551 84.4248 33.3446C77.7627 36.6052 72.7341 39.9864 69.339 45.7519C68.5845 47.0043 66.4493 46.2558 64.3104 44.2475C66.951 42.9951 69.9689 41.7427 72.7341 35.7252C73.4886 33.9726 74.6203 33.0926 76.001 32.5924C80.4034 30.9639 84.802 29.2076 88.3217 26.9547C92.3431 24.4462 94.2293 22.4416 99.0088 23.3179ZM101.774 17.3041C103.785 16.8002 106.799 17.4282 108.308 18.0563C110.322 19.0568 112.835 21.8135 112.835 21.8135C112.835 21.8135 109.062 22.0655 105.795 21.6894C102.525 21.3133 97.6244 20.185 97.6244 20.185C99.0088 18.8048 100.137 17.6802 101.774 17.3041ZM113.336 13.7915H131.312C131.942 13.7915 131.942 14.6715 131.565 15.2958C130.558 16.928 127.668 21.0614 127.668 21.0614C127.668 21.0614 123.895 19.6848 118.49 18.8048C117.863 18.6807 115.475 16.1758 113.465 14.2954C113.087 14.0434 113.336 13.7915 113.336 13.7915ZM133.451 71.5707C132.821 71.5707 132.696 71.0705 132.444 70.5666C131.187 67.9376 129.301 64.6769 128.045 62.1721C127.921 61.9201 127.291 59.5395 127.291 58.5353L126.789 52.3937C126.789 52.3937 126.913 51.8935 127.543 51.3933C130.686 48.8848 131.689 48.1326 132.821 47.7565C133.953 47.3804 156.202 39.9864 156.202 39.9864C157.081 39.6103 157.711 40.2383 157.711 40.2383V70.4424C157.711 70.4424 157.334 71.6949 156.708 71.6949H133.451V71.5707ZM126.159 71.6949C126.159 71.6949 127.668 73.9514 128.422 76.9601C130.18 83.7298 131.312 87.8631 132.572 92.7523C132.949 94.3808 133.828 97.7656 133.575 99.8944C132.821 104.407 132.572 106.912 132.572 106.912C132.572 106.912 131.312 105.16 130.935 102.527C130.686 101.023 130.81 99.3941 130.686 97.8898C130.18 92.8764 127.792 86.3587 126.159 78.4645C125.404 75.3316 125.657 73.0751 126.159 71.6949ZM85.9337 35.3492C92.7203 31.968 101.646 31.088 109.568 31.8402C116.479 32.4682 119.874 34.3487 120.127 35.853C120.127 35.853 115.223 34.3487 109.44 34.0967C100.265 33.7206 93.4748 34.3487 87.19 37.1055C79.6489 40.4903 72.4814 46.6282 72.4814 46.6282C72.4814 46.6282 72.4814 41.991 85.9337 35.3492ZM78.1399 45.5036C76.7555 49.1367 75.122 51.3933 73.6131 52.2696C72.7341 52.8976 71.8551 53.2737 71.8551 53.2737C71.8551 53.2737 71.2252 51.8935 72.6096 50.013C74.1185 48.3845 76.631 46.3799 78.1399 45.5036ZM61.5452 81.7215C62.4278 79.5928 63.9368 77.9642 66.4493 77.3362C66.5738 74.4553 67.7055 72.0709 69.2144 69.9422C70.7234 67.9376 70.8479 67.9376 70.8479 66.0571C70.8479 66.0571 71.9796 65.305 73.2359 64.9289C73.4886 67.4337 72.9868 68.1859 71.9796 69.8144C70.0934 72.8231 69.7162 72.5748 69.0899 76.9601C68.9617 78.0884 68.9617 78.5886 68.2073 79.0889C66.4493 80.093 65.0648 80.721 64.3104 82.7256C62.6769 86.4865 63.3068 91.4999 63.0541 96.2612C63.0541 96.7615 62.9296 97.1376 62.2997 97.3895C57.2711 99.3941 51.7407 101.399 48.3492 105.912C47.342 107.292 46.8403 108.041 45.0786 106.54C45.0786 106.54 45.3313 104.659 47.7193 102.403C50.8617 99.27 56.6448 97.2654 60.6662 95.5091C60.5417 90.2438 60.1644 85.3583 61.5452 81.7215ZM67.9582 97.5137C67.83 99.7702 67.4564 100.647 65.6948 101.15C61.4207 102.527 57.1465 104.031 53.3742 107.792C52.4952 108.669 51.3635 110.297 49.6055 108.669C51.2389 103.779 59.0327 100.898 62.9296 99.3941C64.4386 98.7661 65.3176 98.1417 65.3176 96.6373C65.4421 93.2525 64.6876 87.739 66.5738 83.4778C67.7055 81.0971 70.4707 80.721 70.8479 78.8406C71.1006 77.5882 71.1006 76.4599 71.4779 75.5799C72.4814 72.8231 73.7413 71.3188 74.6203 69.4383C75.2502 67.9376 75.8765 67.0576 75.4993 63.9247C75.4993 63.9247 76.631 63.1726 77.8872 62.6723C78.1399 65.305 78.0154 67.1854 77.1328 69.5661C76.2538 71.9468 74.7448 72.9509 73.9903 75.5799C73.6131 76.7082 73.364 78.5886 73.1113 79.7169C72.7341 81.8493 70.3462 82.3495 69.2144 84.4783C66.951 88.7431 68.2073 93.6286 67.9582 97.5137ZM109.44 38.734C104.286 38.482 97.3717 38.8581 93.603 39.9864C88.6989 41.3666 85.432 44.2475 82.4141 50.013C80.2752 54.15 77.3855 56.4066 72.9868 58.4112C71.7306 58.9114 70.4707 59.4153 69.2144 59.6636C69.2144 58.7873 70.2216 56.9068 72.3569 55.9027C75.8765 54.2742 77.7627 52.2696 79.7734 48.7606C83.2931 42.3671 88.1971 39.2342 92.8485 37.7298C97.2472 36.3533 103.909 36.1013 109.568 36.3533C117.739 36.7294 123.141 38.8581 125.28 41.6149C125.533 41.991 125.657 42.3671 125.533 42.9951C123.518 41.6149 119.372 39.2342 109.44 38.734ZM114.845 54.5261C114.974 53.6498 116.354 53.1459 117.233 52.8976C119.12 52.3937 121.006 53.1459 121.13 54.5261C121.13 55.9027 120.629 56.5307 120.629 56.5307C119.75 55.2783 118.618 54.15 114.845 54.5261ZM116.354 62.9243C117.739 62.7965 119.621 62.0443 118.867 60.0397C117.611 60.4158 116.479 60.4158 115.724 59.5395C116.607 59.1634 117.863 58.6631 118.241 57.4071C118.241 57.4071 118.365 57.2829 118.49 57.4071C118.995 58.0351 119.244 58.9114 119.874 59.2875C120.376 59.6636 122.009 58.1592 122.009 58.1592C123.269 63.9247 121.13 68.8139 120.504 73.1992C119.372 72.3229 119.244 72.3229 117.863 71.9468C117.988 69.5661 117.863 69.3142 116.354 62.9243ZM138.729 13.7915H155.701C155.953 13.7915 157.587 14.2954 157.587 14.7956V34.7248C157.587 34.7248 157.334 35.7252 156.202 36.1013C153.06 37.1055 136.469 42.4949 133.451 43.4954C133.074 43.6231 132.319 43.6232 132.066 42.9951C131.063 40.1142 129.177 37.6057 128.924 37.2296C128.547 36.7294 128.8 35.9772 129.177 35.225C130.056 33.8448 131.187 32.2163 131.689 30.5878C132.572 27.7068 131.187 25.0742 130.935 23.5698C130.81 22.9418 130.81 22.8177 131.44 21.8135C131.44 21.8135 134.96 16.4241 135.963 15.1717C136.718 14.2954 137.348 13.7915 138.729 13.7915Z" fill="#453116"></path>
  <path d="M106.048 50.7654C105.543 50.6412 105.041 50.7654 104.286 50.7654C103.155 50.7654 102.023 50.141 100.767 50.0132C98.6316 49.6371 95.8627 49.6371 93.852 50.141C91.7168 50.7654 88.9516 52.3939 89.7061 54.6504C90.9623 54.6504 92.094 53.398 93.4748 52.8978C95.4891 52.1456 98.6316 52.0178 101.144 52.77C102.023 53.0219 103.155 54.1502 102.4 55.1543C101.397 54.7782 99.3824 54.2743 96.9944 54.4021C94.7347 54.5263 92.3431 55.6546 91.9658 57.535C92.7203 57.9111 93.4748 58.2872 94.482 57.9111C95.4891 60.5401 99.1333 59.7916 99.5106 57.1589C100.514 57.1589 101.397 57.7833 101.269 58.2872C100.891 59.7916 98.6316 60.1677 98.1261 60.792C99.1333 62.4205 102.653 62.4205 103.532 59.5396C103.656 59.0394 104.034 58.1594 104.034 58.1594C104.411 58.0353 105.294 57.535 105.418 57.1589C106.173 55.6546 106.425 53.7741 106.55 52.2697C106.799 51.6417 106.799 50.8932 106.048 50.7654Z" fill="#453116"></path>
  <path d="M104.286 66.4331C102.653 66.4331 101.774 67.8097 101.774 68.9379C101.774 70.3182 102.653 71.1945 103.785 71.3186C103.785 70.6942 103.785 70.6942 103.909 69.8143C104.034 68.6896 104.539 67.8097 104.664 67.1853C104.916 66.6814 104.664 66.4331 104.286 66.4331Z" fill="#453116"></path>
</svg>
