<?xml version="1.0" encoding="UTF-8"?>
<svg xmlns="http://www.w3.org/2000/svg" xmlns:xlink="http://www.w3.org/1999/xlink" width="643px" height="143px" viewBox="0 0 641 143">
  <g id="surface1">
    <path style=" stroke:none;fill-rule:nonzero;fill:rgb(27.058824%,19.215686%,8.627451%);fill-opacity:1;" d="M 205.265625 133.410156 L 203.925781 131.667969 C 202.984375 132.46875 202.046875 132.738281 200.839844 132.738281 C 199.230469 132.738281 197.890625 131.933594 197.085938 130.324219 C 196.683594 129.386719 196.414062 128.179688 196.414062 126.167969 C 196.414062 124.15625 196.683594 122.816406 197.355469 121.746094 C 198.023438 120.402344 199.230469 119.734375 200.707031 119.734375 C 201.777344 119.734375 202.71875 120 203.523438 120.671875 L 204.863281 118.792969 C 203.925781 117.988281 202.316406 117.453125 200.707031 117.453125 C 198.023438 117.453125 195.746094 118.929688 194.539062 121.34375 C 193.734375 122.816406 193.464844 124.425781 193.464844 126.4375 C 193.464844 128.851562 194.136719 130.863281 195.34375 132.335938 C 196.683594 133.945312 198.425781 134.75 200.707031 134.75 C 202.449219 134.882812 203.925781 134.347656 205.265625 133.410156 Z M 205.265625 133.410156 "></path>
    <path style=" stroke:none;fill-rule:nonzero;fill:rgb(27.058824%,19.215686%,8.627451%);fill-opacity:1;" d="M 212.371094 124.292969 L 215.453125 124.292969 L 215.855469 122.28125 L 206.335938 122.28125 L 206.335938 124.292969 L 209.6875 124.292969 L 209.6875 134.617188 L 212.371094 134.617188 Z M 212.371094 124.292969 "></path>
    <path style=" stroke:none;fill-rule:nonzero;fill:rgb(27.058824%,19.215686%,8.627451%);fill-opacity:1;" d="M 228.191406 128.449219 C 228.191406 124.558594 226.179688 122.011719 222.695312 122.011719 C 219.476562 122.011719 217.332031 124.558594 217.332031 128.449219 C 217.332031 132.46875 219.476562 134.882812 222.695312 134.882812 C 226.046875 134.882812 228.191406 132.46875 228.191406 128.449219 Z M 225.242188 128.449219 C 225.242188 131.53125 224.304688 132.871094 222.828125 132.871094 C 221.21875 132.871094 220.28125 131.800781 220.28125 128.179688 C 220.28125 125.230469 220.953125 123.890625 222.695312 123.890625 C 224.167969 124.023438 225.242188 124.960938 225.242188 128.449219 Z M 225.242188 128.449219 "></path>
    <path style=" stroke:none;fill-rule:nonzero;fill:rgb(27.058824%,19.215686%,8.627451%);fill-opacity:1;" d="M 231.675781 122.28125 L 230.46875 134.617188 L 232.882812 134.617188 L 233.421875 127.375 C 233.421875 126.839844 233.421875 125.765625 233.421875 125.363281 L 233.554688 125.363281 C 233.6875 125.902344 233.820312 126.570312 234.089844 127.511719 L 236.371094 134.617188 L 238.515625 134.617188 L 240.929688 127.242188 C 241.0625 127.105469 241.195312 126.304688 241.464844 125.363281 L 241.597656 125.363281 C 241.597656 126.570312 241.597656 126.972656 241.597656 127.375 L 242.269531 134.617188 L 244.816406 134.617188 L 243.609375 122.28125 L 240.390625 122.28125 L 238.378906 128.851562 C 238.246094 129.519531 237.980469 130.058594 237.710938 131.128906 C 237.578125 130.191406 237.308594 129.65625 237.039062 128.851562 L 235.027344 122.414062 Z M 231.675781 122.28125 "></path>
    <path style=" stroke:none;fill-rule:nonzero;fill:rgb(27.058824%,19.215686%,8.627451%);fill-opacity:1;" d="M 258.089844 133.410156 C 257.152344 132.738281 257.015625 132.203125 257.015625 130.59375 L 257.015625 127.105469 C 257.015625 125.230469 257.015625 124.558594 256.882812 124.023438 C 256.347656 122.683594 255.003906 122.011719 253.128906 122.011719 C 251.25 122.011719 249.777344 122.546875 247.898438 123.621094 L 249.105469 125.5 C 249.105469 125.5 250.984375 124.15625 252.726562 124.15625 C 254.203125 124.15625 254.46875 124.960938 254.46875 126.304688 L 254.46875 126.972656 L 253.664062 126.972656 C 249.777344 126.972656 247.632812 128.449219 247.632812 131.265625 C 247.632812 133.410156 248.839844 134.882812 251.652344 134.882812 C 252.996094 134.882812 254.066406 134.480469 255.003906 133.410156 C 255.273438 134.214844 255.945312 134.75 256.75 135.019531 Z M 254.335938 128.851562 L 254.335938 131.800781 C 253.800781 132.605469 252.996094 133.007812 252.054688 133.007812 C 250.984375 133.007812 250.3125 132.335938 250.3125 131.128906 C 250.3125 129.519531 251.117188 128.851562 253.800781 128.851562 C 254.066406 128.851562 254.335938 128.851562 254.335938 128.851562 Z M 254.335938 128.851562 "></path>
    <path style=" stroke:none;fill-rule:nonzero;fill:rgb(27.058824%,19.215686%,8.627451%);fill-opacity:1;" d="M 265.195312 124.292969 L 268.414062 124.292969 L 268.816406 122.28125 L 259.296875 122.28125 L 259.296875 124.292969 L 262.648438 124.292969 L 262.648438 134.617188 L 265.195312 134.617188 Z M 265.195312 124.292969 "></path>
    <path style=" stroke:none;fill-rule:nonzero;fill:rgb(27.058824%,19.215686%,8.627451%);fill-opacity:1;" d="M 281.148438 128.449219 C 281.148438 124.558594 279.140625 122.011719 275.652344 122.011719 C 272.433594 122.011719 270.289062 124.558594 270.289062 128.449219 C 270.289062 132.46875 272.433594 134.882812 275.652344 134.882812 C 279.003906 134.882812 281.148438 132.46875 281.148438 128.449219 Z M 278.199219 128.449219 C 278.199219 131.53125 277.261719 132.871094 275.789062 132.871094 C 274.179688 132.871094 273.238281 131.800781 273.238281 128.179688 C 273.238281 125.230469 273.910156 123.890625 275.652344 123.890625 C 277.128906 124.023438 278.199219 124.960938 278.199219 128.449219 Z M 278.199219 128.449219 "></path>
    <path style=" stroke:none;fill-rule:nonzero;fill:rgb(27.058824%,19.215686%,8.627451%);fill-opacity:1;" d="M 285.304688 122.28125 L 285.171875 124.558594 C 285.039062 126.035156 285.039062 126.972656 284.902344 128.582031 C 284.769531 130.058594 284.769531 131.53125 283.964844 132.203125 C 283.699219 132.46875 283.160156 132.738281 282.757812 132.871094 L 282.222656 133.007812 L 282.757812 134.882812 L 283.429688 134.75 C 284.097656 134.617188 285.171875 134.617188 285.976562 133.8125 C 286.648438 133.140625 286.78125 132.203125 286.914062 131.53125 C 287.050781 130.59375 287.183594 129.117188 287.316406 128.449219 C 287.453125 127.375 287.453125 126.304688 287.585938 125.632812 L 287.71875 124.292969 L 290.535156 124.292969 L 290.535156 134.617188 L 293.214844 134.617188 L 293.214844 122.28125 Z M 285.304688 122.28125 "></path>
    <path style=" stroke:none;fill-rule:nonzero;fill:rgb(27.058824%,19.215686%,8.627451%);fill-opacity:1;" d="M 306.757812 128.449219 C 306.757812 124.558594 304.746094 122.011719 301.261719 122.011719 C 298.042969 122.011719 295.898438 124.558594 295.898438 128.449219 C 295.898438 132.46875 298.042969 134.882812 301.261719 134.882812 C 304.476562 134.882812 306.757812 132.46875 306.757812 128.449219 Z M 303.808594 128.449219 C 303.808594 131.53125 302.871094 132.871094 301.394531 132.871094 C 299.785156 132.871094 298.847656 131.800781 298.847656 128.179688 C 298.847656 125.230469 299.519531 123.890625 301.261719 123.890625 C 302.871094 124.023438 303.808594 124.960938 303.808594 128.449219 Z M 303.808594 128.449219 "></path>
    <path style=" stroke:none;fill-rule:nonzero;fill:rgb(27.058824%,19.215686%,8.627451%);fill-opacity:1;" d="M 312.253906 124.292969 L 316.949219 124.292969 L 317.214844 122.28125 L 309.574219 122.28125 L 309.574219 134.617188 L 312.253906 134.617188 Z M 312.253906 124.292969 "></path>
    <path style=" stroke:none;fill-rule:nonzero;fill:rgb(27.058824%,19.215686%,8.627451%);fill-opacity:1;" d="M 319.359375 134.617188 L 322.175781 134.617188 L 325.527344 128.582031 C 325.929688 127.910156 326.464844 126.839844 326.734375 125.902344 C 326.601562 127.105469 326.601562 127.910156 326.601562 129.117188 L 326.601562 134.75 L 329.28125 134.75 L 329.28125 122.148438 L 326.464844 122.683594 L 323.25 128.582031 C 322.847656 129.253906 322.308594 130.191406 321.90625 131.398438 C 321.90625 130.59375 322.042969 129.519531 322.042969 128.582031 L 322.042969 122.148438 L 319.359375 122.683594 Z M 319.359375 134.617188 "></path>
    <path style=" stroke:none;fill-rule:nonzero;fill:rgb(27.058824%,19.215686%,8.627451%);fill-opacity:1;" d="M 338.53125 122.546875 L 338.53125 127.777344 C 337.863281 128.179688 337.191406 128.179688 336.65625 128.179688 C 336.253906 128.179688 335.71875 128.046875 335.316406 127.777344 C 334.777344 127.375 334.777344 126.707031 334.777344 126.304688 L 334.777344 122.011719 L 332.097656 122.546875 L 332.097656 126.707031 C 332.097656 127.511719 332.097656 128.449219 333.035156 129.253906 C 333.839844 130.058594 335.179688 130.191406 335.984375 130.191406 C 336.921875 130.191406 337.59375 130.058594 338.53125 129.65625 L 338.53125 134.617188 L 341.214844 134.617188 L 341.214844 122.011719 Z M 338.53125 122.546875 "></path>
    <path style=" stroke:none;fill-rule:nonzero;fill:rgb(27.058824%,19.215686%,8.627451%);fill-opacity:1;" d="M 354.21875 129.117188 L 354.21875 128.582031 C 354.21875 125.765625 353.683594 124.15625 352.609375 123.21875 C 351.539062 122.28125 350.464844 122.011719 349.257812 122.011719 C 347.648438 122.011719 346.441406 122.546875 345.503906 123.621094 C 344.433594 124.828125 344.03125 126.304688 344.03125 128.449219 C 344.03125 132.46875 346.175781 134.882812 349.660156 134.882812 C 351.269531 134.882812 352.746094 134.347656 354.085938 133.273438 L 353.011719 131.667969 C 352.074219 132.46875 351.136719 132.871094 349.929688 132.871094 C 347.515625 132.871094 346.84375 131.128906 346.84375 129.386719 L 346.84375 129.117188 Z M 351.539062 127.105469 L 346.980469 127.105469 C 346.980469 125.097656 347.785156 123.890625 349.257812 123.890625 C 350.597656 124.023438 351.539062 125.097656 351.539062 127.105469 Z M 365.882812 133.273438 L 364.675781 131.667969 C 363.871094 132.46875 363.066406 132.871094 362.128906 132.871094 C 361.460938 132.871094 360.921875 132.605469 360.519531 132.203125 C 359.984375 131.53125 359.714844 130.59375 359.714844 128.851562 C 359.714844 127.375 359.851562 126.167969 360.253906 125.363281 C 360.65625 124.558594 361.324219 124.15625 362.128906 124.15625 C 362.800781 124.15625 363.46875 124.425781 364.140625 125.097656 L 365.480469 123.355469 C 364.410156 122.28125 363.46875 122.011719 362.128906 122.011719 C 359.3125 122.011719 356.765625 124.15625 356.765625 128.582031 C 356.765625 132.605469 358.644531 134.882812 361.996094 134.882812 C 363.605469 134.882812 364.675781 134.347656 365.882812 133.273438 Z M 365.882812 133.273438 "></path>
    <path style=" stroke:none;fill-rule:nonzero;fill:rgb(27.058824%,19.215686%,8.627451%);fill-opacity:1;" d="M 368.164062 134.617188 L 370.84375 134.617188 L 370.84375 129.117188 L 371.917969 129.117188 C 372.320312 129.117188 372.722656 129.117188 373.125 129.386719 C 373.390625 129.65625 373.527344 130.191406 373.660156 130.59375 L 374.0625 132.335938 C 374.195312 132.738281 374.328125 133.542969 374.867188 133.945312 C 375.535156 134.617188 376.339844 134.617188 377.144531 134.617188 L 377.949219 134.75 L 378.488281 132.871094 L 377.949219 132.738281 C 377.816406 132.738281 377.414062 132.605469 377.144531 132.335938 C 377.011719 132.203125 376.878906 132.070312 376.742188 131.53125 L 376.074219 129.65625 C 375.9375 129.253906 375.671875 128.714844 375.402344 128.3125 C 375.269531 128.179688 374.867188 127.910156 374.464844 127.777344 C 375 127.644531 375.402344 127.375 375.402344 127.242188 C 375.671875 126.972656 375.9375 126.570312 376.074219 126.167969 L 376.476562 124.828125 C 376.609375 124.558594 376.609375 124.15625 376.878906 124.023438 C 377.144531 123.890625 377.28125 123.753906 377.546875 123.753906 L 378.21875 123.621094 L 377.683594 121.746094 L 376.742188 121.878906 C 375.804688 122.011719 375.269531 122.011719 374.730469 122.546875 C 374.328125 122.949219 374.195312 123.488281 374.0625 124.023438 L 373.792969 125.363281 C 373.660156 125.902344 373.527344 126.304688 373.257812 126.570312 C 372.855469 126.972656 372.320312 126.972656 371.917969 126.972656 L 370.710938 126.972656 L 370.710938 121.878906 L 368.027344 122.414062 L 368.027344 134.617188 Z M 368.164062 134.617188 "></path>
    <path style=" stroke:none;fill-rule:nonzero;fill:rgb(27.058824%,19.215686%,8.627451%);fill-opacity:1;" d="M 391.355469 133.410156 C 390.417969 132.738281 390.285156 132.203125 390.285156 130.59375 L 390.285156 127.105469 C 390.285156 125.230469 390.285156 124.558594 390.152344 124.023438 C 389.613281 122.683594 388.273438 122.011719 386.398438 122.011719 C 384.519531 122.011719 383.046875 122.546875 381.167969 123.621094 L 382.375 125.5 C 382.375 125.5 384.25 124.15625 385.996094 124.15625 C 387.46875 124.15625 387.738281 124.960938 387.738281 126.304688 L 387.738281 126.972656 L 386.933594 126.972656 C 383.046875 126.972656 380.898438 128.449219 380.898438 131.265625 C 380.898438 133.410156 382.105469 134.882812 384.921875 134.882812 C 386.261719 134.882812 387.335938 134.480469 388.273438 133.410156 C 388.542969 134.214844 389.210938 134.75 390.015625 135.019531 Z M 387.601562 128.851562 L 387.601562 131.800781 C 387.066406 132.605469 386.261719 133.007812 385.324219 133.007812 C 384.25 133.007812 383.582031 132.335938 383.582031 131.128906 C 383.582031 129.519531 384.386719 128.851562 387.066406 128.851562 C 387.335938 128.851562 387.601562 128.851562 387.601562 128.851562 Z M 387.601562 128.851562 "></path>
    <path style=" stroke:none;fill-rule:nonzero;fill:rgb(27.058824%,19.215686%,8.627451%);fill-opacity:1;" d="M 403.558594 122.28125 L 399 122.28125 C 397.792969 122.28125 396.453125 122.414062 395.378906 123.351562 C 394.976562 123.753906 394.441406 124.558594 394.441406 125.765625 C 394.441406 126.707031 394.84375 127.375 395.246094 127.910156 C 395.648438 128.3125 396.316406 128.714844 397.121094 128.851562 C 396.71875 128.984375 396.453125 129.117188 396.050781 129.386719 C 395.648438 129.65625 395.511719 130.058594 395.378906 130.460938 L 394.976562 131.53125 C 394.84375 131.933594 394.707031 132.203125 394.441406 132.46875 C 394.308594 132.605469 394.039062 132.738281 393.503906 132.871094 L 393.101562 133.007812 L 393.503906 134.882812 L 394.441406 134.75 C 394.976562 134.75 396.050781 134.617188 396.71875 133.945312 C 397.121094 133.542969 397.257812 133.007812 397.390625 132.46875 L 397.792969 131.265625 C 397.925781 130.863281 397.925781 130.460938 398.328125 130.058594 C 398.730469 129.65625 399.132812 129.65625 399.667969 129.65625 L 400.742188 129.65625 L 400.742188 134.480469 L 403.421875 134.480469 Z M 401.011719 124.292969 L 401.011719 127.910156 L 399.402344 127.910156 C 398.730469 127.910156 398.0625 127.644531 397.792969 127.375 C 397.390625 126.972656 397.257812 126.4375 397.257812 126.035156 C 397.257812 125.632812 397.390625 125.097656 397.792969 124.695312 C 398.328125 124.292969 399 124.292969 399.402344 124.292969 Z M 412.941406 134.617188 L 415.625 134.617188 L 415.625 129.117188 L 416.695312 129.117188 C 417.097656 129.117188 417.5 129.117188 417.902344 129.386719 C 418.171875 129.65625 418.304688 130.191406 418.441406 130.59375 L 418.84375 132.335938 C 418.976562 132.738281 419.109375 133.542969 419.648438 133.945312 C 420.316406 134.617188 421.121094 134.617188 421.925781 134.617188 L 422.730469 134.75 L 423.265625 132.871094 L 422.730469 132.738281 C 422.597656 132.738281 422.195312 132.605469 421.925781 132.335938 C 421.792969 132.203125 421.65625 132.070312 421.523438 131.53125 L 420.851562 129.65625 C 420.71875 129.253906 420.449219 128.714844 420.183594 128.3125 C 420.046875 128.179688 419.648438 127.910156 419.246094 127.777344 C 419.78125 127.644531 420.183594 127.375 420.183594 127.242188 C 420.449219 126.972656 420.71875 126.570312 420.851562 126.167969 L 421.253906 124.828125 C 421.390625 124.558594 421.390625 124.15625 421.65625 124.023438 C 421.925781 123.890625 422.058594 123.753906 422.328125 123.753906 L 423 123.621094 L 422.460938 121.746094 L 421.523438 121.878906 C 420.585938 122.011719 420.046875 122.011719 419.511719 122.546875 C 419.109375 122.949219 418.976562 123.488281 418.84375 124.023438 L 418.574219 125.363281 C 418.441406 125.902344 418.304688 126.304688 418.039062 126.570312 C 417.636719 126.972656 417.097656 126.972656 416.695312 126.972656 L 415.488281 126.972656 L 415.488281 121.878906 L 412.808594 122.414062 L 412.808594 134.617188 Z M 412.941406 134.617188 "></path>
    <path style=" stroke:none;fill-rule:nonzero;fill:rgb(27.058824%,19.215686%,8.627451%);fill-opacity:1;" d="M 427.824219 122.28125 L 427.691406 124.558594 C 427.558594 126.035156 427.558594 126.972656 427.421875 128.582031 C 427.289062 130.058594 427.289062 131.53125 426.484375 132.203125 C 426.214844 132.46875 425.679688 132.738281 425.277344 132.871094 L 424.742188 133.007812 L 425.277344 134.882812 L 425.949219 134.75 C 426.617188 134.617188 427.691406 134.617188 428.496094 133.8125 C 429.167969 133.140625 429.300781 132.203125 429.433594 131.53125 C 429.566406 130.59375 429.703125 129.117188 429.835938 128.449219 C 429.96875 127.375 429.96875 126.304688 430.105469 125.632812 L 430.238281 124.292969 L 433.054688 124.292969 L 433.054688 134.617188 L 435.734375 134.617188 L 435.734375 122.28125 Z M 427.824219 122.28125 "></path>
    <path style=" stroke:none;fill-rule:nonzero;fill:rgb(27.058824%,19.215686%,8.627451%);fill-opacity:1;" d="M 439.085938 134.617188 L 441.902344 134.617188 L 445.253906 128.582031 C 445.65625 127.910156 446.191406 126.839844 446.460938 125.902344 C 446.328125 127.105469 446.328125 127.910156 446.328125 129.117188 L 446.328125 134.75 L 449.007812 134.75 L 449.007812 122.148438 L 446.191406 122.683594 L 442.976562 128.582031 C 442.574219 129.253906 442.035156 130.191406 441.636719 131.398438 C 441.636719 130.59375 441.769531 129.519531 441.769531 128.582031 L 441.769531 122.148438 L 439.085938 122.683594 Z M 439.085938 134.617188 "></path>
    <path style=" stroke:none;fill-rule:nonzero;fill:rgb(27.058824%,19.215686%,8.627451%);fill-opacity:1;" d="M 455.445312 129.117188 L 459.601562 129.117188 L 459.601562 134.617188 L 462.28125 134.617188 L 462.28125 122.011719 L 459.601562 122.546875 L 459.601562 127.105469 L 455.445312 127.105469 L 455.445312 122.011719 L 452.761719 122.546875 L 452.761719 134.617188 L 455.445312 134.617188 Z M 455.445312 129.117188 "></path>
    <path style=" stroke:none;fill-rule:nonzero;fill:rgb(27.058824%,19.215686%,8.627451%);fill-opacity:1;" d="M 465.902344 134.617188 L 468.71875 134.617188 L 472.070312 128.582031 C 472.472656 127.910156 473.007812 126.839844 473.277344 125.902344 C 473.140625 127.105469 473.140625 127.910156 473.140625 129.117188 L 473.140625 134.75 L 475.824219 134.75 L 475.824219 122.148438 L 473.007812 122.683594 L 469.789062 128.582031 C 469.386719 129.253906 468.851562 130.191406 468.449219 131.398438 C 468.449219 130.59375 468.582031 129.519531 468.582031 128.582031 L 468.582031 122.148438 L 465.902344 122.683594 Z M 465.902344 134.617188 "></path>
    <path style=" stroke:none;fill-rule:nonzero;fill:rgb(27.058824%,19.215686%,8.627451%);fill-opacity:1;" d="M 479.441406 134.617188 L 482.125 134.617188 L 482.125 129.117188 L 483.195312 129.117188 C 483.597656 129.117188 484 129.117188 484.402344 129.386719 C 484.671875 129.65625 484.804688 130.191406 484.941406 130.59375 L 485.34375 132.335938 C 485.476562 132.738281 485.609375 133.542969 486.148438 133.945312 C 486.816406 134.617188 487.621094 134.617188 488.425781 134.617188 L 489.230469 134.75 L 489.765625 132.871094 L 489.230469 132.738281 C 489.097656 132.738281 488.695312 132.605469 488.425781 132.335938 C 488.292969 132.203125 488.15625 132.070312 488.023438 131.53125 L 487.351562 129.65625 C 487.21875 129.253906 486.949219 128.714844 486.683594 128.3125 C 486.546875 128.179688 486.148438 127.910156 485.746094 127.777344 C 486.28125 127.644531 486.683594 127.375 486.683594 127.242188 C 486.949219 126.972656 487.21875 126.570312 487.351562 126.167969 L 487.753906 124.828125 C 487.890625 124.558594 487.890625 124.15625 488.15625 124.023438 C 488.425781 123.890625 488.558594 123.753906 488.828125 123.753906 L 489.5 123.621094 L 488.960938 121.746094 L 488.023438 121.878906 C 487.085938 122.011719 486.546875 122.011719 486.011719 122.546875 C 485.609375 122.949219 485.476562 123.488281 485.34375 124.023438 L 485.074219 125.363281 C 484.941406 125.902344 484.804688 126.304688 484.539062 126.570312 C 484.136719 126.972656 483.597656 126.972656 483.195312 126.972656 L 481.988281 126.972656 L 481.988281 121.878906 L 479.308594 122.414062 L 479.308594 134.617188 Z M 502.101562 133.410156 C 501.164062 132.738281 501.027344 132.203125 501.027344 130.59375 L 501.027344 127.105469 C 501.027344 125.230469 501.027344 124.558594 500.894531 124.023438 C 500.359375 122.683594 499.015625 122.011719 497.140625 122.011719 C 495.265625 122.011719 493.789062 122.546875 491.910156 123.621094 L 493.117188 125.5 C 493.117188 125.5 494.996094 124.15625 496.738281 124.15625 C 498.214844 124.15625 498.480469 124.960938 498.480469 126.304688 L 498.480469 126.972656 L 497.675781 126.972656 C 493.789062 126.972656 491.644531 128.449219 491.644531 131.265625 C 491.644531 133.410156 492.851562 134.882812 495.664062 134.882812 C 497.007812 134.882812 498.078125 134.480469 499.015625 133.410156 C 499.285156 134.214844 499.957031 134.75 500.761719 135.019531 Z M 498.480469 128.851562 L 498.480469 131.800781 C 497.945312 132.605469 497.140625 133.007812 496.203125 133.007812 C 495.128906 133.007812 494.460938 132.335938 494.460938 131.128906 C 494.460938 129.519531 495.265625 128.851562 497.945312 128.851562 C 498.214844 128.851562 498.480469 128.851562 498.480469 128.851562 Z M 498.480469 128.851562 "></path>
    <path style=" stroke:none;fill-rule:nonzero;fill:rgb(27.058824%,19.215686%,8.627451%);fill-opacity:1;" d="M 241.867188 91.039062 L 230.46875 91.039062 L 230.46875 37.675781 L 218.539062 37.675781 C 217.332031 57.386719 215.453125 74.949219 212.90625 83.398438 C 211.566406 87.417969 209.6875 89.164062 206.875 90.636719 C 203.925781 92.113281 200.4375 92.648438 196.148438 92.648438 C 190.25 92.648438 187.835938 89.699219 187.835938 86.617188 C 187.96875 82.859375 191.457031 79.910156 191.457031 79.910156 C 194.136719 82.058594 198.425781 85.945312 200.304688 85.945312 C 203.386719 85.945312 206.335938 59.53125 207.542969 32.3125 L 242 31.507812 L 242 91.039062 Z M 241.867188 91.039062 "></path>
    <path style=" stroke:none;fill-rule:nonzero;fill:rgb(27.058824%,19.215686%,8.627451%);fill-opacity:1;" d="M 413.882812 91.039062 L 402.484375 91.039062 L 402.484375 63.417969 L 378.621094 63.417969 L 378.621094 91.039062 L 367.222656 91.039062 L 367.222656 32.179688 L 378.621094 31.375 L 378.621094 57.519531 L 402.484375 57.519531 L 402.484375 32.179688 L 413.882812 31.375 Z M 413.882812 91.039062 "></path>
    <path style=" stroke:none;fill-rule:nonzero;fill:rgb(27.058824%,19.215686%,8.627451%);fill-opacity:1;" d="M 561.761719 85.140625 L 561.761719 37.542969 L 550.097656 37.542969 C 550.097656 37.542969 549.160156 54.167969 545.808594 69.855469 C 544.335938 76.695312 541.117188 82.726562 538.835938 85.542969 Z M 580.800781 90.503906 L 580.800781 103.242188 L 573.425781 104.046875 C 573.425781 104.046875 571.015625 95.195312 567.261719 90.90625 L 533.472656 90.90625 C 529.183594 93.722656 529.183594 103.105469 529.183594 103.105469 L 522.480469 103.910156 L 518.859375 90.234375 C 518.859375 90.234375 523.820312 87.417969 526.503906 84.605469 C 530.257812 80.984375 533.609375 75.351562 534.816406 69.183594 C 538.167969 52.960938 539.238281 32.046875 539.238281 32.046875 L 572.890625 31.242188 L 573.027344 84.871094 C 573.160156 85.007812 578.121094 87.285156 580.800781 90.503906 Z M 580.800781 90.503906 "></path>
    <path style=" stroke:none;fill-rule:nonzero;fill:rgb(27.058824%,19.215686%,8.627451%);fill-opacity:1;" d="M 295.09375 91.039062 L 256.613281 91.039062 L 256.613281 32.179688 L 295.898438 31.375 L 294.15625 37.675781 L 267.878906 37.675781 L 267.878906 56.984375 L 289.863281 56.984375 L 288.121094 62.882812 L 267.878906 62.882812 L 267.878906 84.738281 L 297.640625 84.335938 Z M 295.09375 91.039062 "></path>
    <path style=" stroke:none;fill-rule:nonzero;fill:rgb(27.058824%,19.215686%,8.627451%);fill-opacity:1;" d="M 455.308594 67.84375 L 446.730469 44.648438 L 437.210938 67.84375 Z M 475.554688 91.039062 L 463.488281 91.039062 L 457.050781 73.742188 L 435.066406 73.742188 L 427.960938 91.039062 L 421.390625 91.039062 L 446.191406 31.375 L 453.96875 30.4375 Z M 475.554688 91.039062 "></path>
    <path style=" stroke:none;fill-rule:nonzero;fill:rgb(27.058824%,19.215686%,8.627451%);fill-opacity:1;" d="M 505.855469 39.417969 C 502.636719 37.273438 498.347656 37.007812 496.066406 37.007812 L 496.066406 59.800781 C 496.066406 59.800781 499.820312 59.664062 502.367188 59.398438 C 504.917969 58.996094 507.0625 58.324219 508.671875 56.449219 C 511.484375 52.960938 511.886719 43.710938 505.855469 39.417969 Z M 496.066406 64.894531 L 496.066406 91.039062 L 484.804688 91.039062 L 484.804688 32.179688 C 484.804688 32.179688 498.347656 31.375 503.441406 31.375 C 508.535156 31.375 513.230469 32.847656 516.714844 35.933594 C 520.46875 39.015625 522.210938 42.90625 522.210938 47.332031 C 522.210938 57.386719 516.582031 63.285156 506.660156 64.761719 C 502.367188 65.296875 496.066406 64.894531 496.066406 64.894531 Z M 496.066406 64.894531 "></path>
    <path style=" stroke:none;fill-rule:nonzero;fill:rgb(27.058824%,19.215686%,8.627451%);fill-opacity:1;" d="M 623.433594 44.78125 C 619.144531 39.015625 613.246094 35.800781 607.078125 36.738281 C 602.789062 37.273438 599.707031 40.222656 597.964844 45.722656 C 595.414062 53.632812 595.550781 68.515625 602.117188 77.632812 C 606.410156 83.664062 611.90625 86.617188 618.070312 86.214844 C 623.167969 85.8125 626.652344 82.058594 628.261719 76.292969 C 630.8125 66.90625 629.605469 53.363281 623.433594 44.78125 Z M 641 60.066406 C 641 79.910156 630.539062 92.515625 612.441406 92.515625 C 605.335938 92.515625 597.15625 89.296875 591.929688 82.859375 C 586.835938 76.695312 584.6875 69.320312 584.6875 61.945312 C 584.6875 52.558594 587.371094 44.78125 592.867188 38.882812 C 598.363281 32.714844 605.875 29.632812 615.257812 29.632812 C 626.25 29.765625 641 39.417969 641 60.066406 Z M 641 60.066406 "></path>
    <path style=" stroke:none;fill-rule:nonzero;fill:rgb(27.058824%,19.215686%,8.627451%);fill-opacity:1;" d="M 340.007812 44.78125 C 335.71875 39.015625 329.816406 35.800781 323.652344 36.738281 C 319.359375 37.273438 316.277344 40.222656 314.535156 45.722656 C 311.988281 53.632812 312.121094 68.515625 318.554688 77.632812 C 322.980469 83.664062 328.34375 86.617188 334.644531 86.214844 C 339.738281 85.8125 343.089844 82.058594 344.835938 76.292969 C 347.515625 66.90625 346.308594 53.363281 340.007812 44.78125 Z M 357.707031 60.066406 C 357.707031 79.910156 347.246094 92.515625 329.148438 92.515625 C 321.90625 92.515625 313.863281 89.296875 308.632812 82.859375 C 303.539062 76.695312 301.394531 69.320312 301.394531 61.945312 C 301.394531 52.558594 304.078125 44.78125 309.4375 38.882812 C 315.070312 32.714844 322.578125 29.632812 331.964844 29.632812 C 342.957031 29.765625 357.707031 39.417969 357.707031 60.066406 Z M 357.707031 60.066406 "></path>
    <path style=" stroke:none;fill-rule:evenodd;fill:rgb(43.137255%,62.745098%,62.352941%);fill-opacity:1;" d="M 31.773438 40.761719 L 35.125 29.496094 L 43.839844 25.074219 L 48.800781 16.089844 L 67.4375 13.675781 L 79.238281 3.886719 L 4.289062 3.886719 L 4.289062 106.324219 L 10.054688 108.871094 L 14.210938 101.097656 L 28.691406 93.183594 L 29.226562 79.644531 L 33.921875 74.011719 L 39.550781 61.273438 L 35.929688 57.386719 L 40.355469 51.21875 L 39.148438 46.125 Z M 31.773438 40.761719 "></path>
    <path style=" stroke:none;fill-rule:evenodd;fill:rgb(43.137255%,62.745098%,62.352941%);fill-opacity:1;" d="M 79.238281 4.023438 L 89.15625 14.882812 L 103.371094 18.636719 L 104.710938 24.402344 L 100.6875 31.644531 L 104.980469 40.761719 L 99.75 45.320312 L 101.089844 62.882812 L 106.722656 72.539062 L 111.414062 94.792969 L 117.046875 100.558594 L 124.152344 112.226562 L 138.765625 117.320312 L 138.765625 4.023438 Z M 79.238281 4.023438 "></path>
    <path style=" stroke:none;fill-rule:evenodd;fill:rgb(57.254902%,37.254902%,11.764706%);fill-opacity:1;" d="M 4.289062 106.324219 L 4.289062 137.835938 L 32.578125 137.835938 L 27.886719 130.460938 L 25.472656 115.578125 Z M 4.289062 106.324219 "></path>
    <path style=" stroke:none;fill-rule:evenodd;fill:rgb(57.254902%,37.254902%,11.764706%);fill-opacity:1;" d="M 138.765625 117.320312 L 138.765625 137.835938 L 115.035156 137.835938 L 124.015625 112.226562 Z M 138.765625 117.320312 "></path>
    <path style=" stroke:none;fill-rule:evenodd;fill:rgb(57.254902%,37.254902%,11.764706%);fill-opacity:1;" d="M 48.800781 16.089844 L 43.839844 25.074219 L 35.125 29.496094 L 31.773438 40.761719 L 39.148438 46.125 L 40.355469 51.21875 L 35.929688 57.386719 L 39.550781 61.273438 L 55.371094 54.839844 L 56.980469 46.929688 L 62.34375 40.089844 L 72.800781 37.273438 L 84.601562 37.140625 L 96.398438 38.882812 L 99.75 45.320312 L 104.980469 40.761719 L 100.6875 31.644531 L 104.710938 24.402344 L 103.371094 18.636719 L 89.15625 14.882812 L 79.238281 3.886719 L 67.4375 13.675781 Z M 48.800781 16.089844 "></path>
    <path style=" stroke:none;fill-rule:nonzero;fill:rgb(27.058824%,19.215686%,8.627451%);fill-opacity:1;" d="M 135.011719 109.675781 C 135.011719 111.554688 134.339844 112.226562 134.339844 112.226562 C 134.339844 112.226562 129.914062 110.078125 125.492188 108.066406 C 124.554688 104.449219 122.40625 99.351562 118.117188 93.722656 C 116.375 91.308594 113.558594 87.6875 112.621094 84.066406 C 111.144531 78.703125 110.074219 73.878906 110.074219 73.878906 C 110.074219 73.878906 110.339844 73.339844 111.144531 73.339844 L 132.867188 73.339844 C 133.535156 73.339844 135.011719 74.28125 135.011719 74.816406 C 135.011719 78.703125 135.011719 108.738281 135.011719 109.675781 Z M 142.652344 139.710938 L 142.652344 2.949219 C 142.519531 1.476562 141.042969 0.132812 139.03125 0 L 3.484375 0 C 1.878906 0 0 1.074219 0 3.082031 L 0 139.84375 C 0 141.320312 1.878906 142.660156 3.082031 142.660156 L 138.765625 142.660156 C 140.640625 142.660156 142.519531 141.722656 142.652344 139.710938 Z M 133.671875 132.46875 C 133.402344 134.347656 132.597656 134.214844 131.660156 134.214844 C 128.710938 134.347656 129.378906 134.480469 126.832031 134.480469 C 126.832031 134.480469 129.914062 127.105469 130.585938 125.363281 C 131.523438 122.949219 132.195312 121.34375 132.195312 121.34375 C 133.804688 122.28125 134.207031 122.546875 134.339844 123.621094 C 134.339844 124.292969 133.9375 130.863281 133.671875 132.46875 Z M 120.398438 134.347656 C 119.996094 132.203125 121.066406 129.921875 121.871094 127.777344 C 123.75 122.28125 124.554688 118.527344 125.355469 116.648438 C 125.625 116.113281 125.894531 115.710938 126.699219 115.980469 C 128.574219 116.515625 130.050781 117.320312 130.050781 117.320312 C 126.832031 126.035156 123.210938 134.347656 123.210938 134.347656 Z M 117.046875 124.292969 C 115.972656 121.746094 115.703125 119.464844 116.375 115.980469 C 117.3125 110.882812 117.179688 106.863281 117.582031 106.324219 C 118.25 106.996094 119.191406 108.871094 119.457031 110.882812 C 120.128906 114.636719 117.582031 123.085938 117.046875 124.292969 Z M 113.15625 115.308594 C 112.351562 113.566406 111.414062 112.625 111.144531 109.675781 C 111.011719 107.398438 111.683594 105.386719 112.085938 101.097656 C 112.21875 99.621094 112.621094 98.414062 112.753906 97.746094 C 113.425781 98.144531 113.695312 99.21875 114.230469 101.097656 C 115.035156 104.582031 113.558594 114.101562 113.15625 115.308594 Z M 108.734375 128.984375 C 108.464844 124.960938 105.246094 120.671875 104.84375 117.589844 C 104.710938 116.246094 104.980469 114.636719 105.648438 113.566406 C 105.648438 113.566406 107.660156 118.125 108.867188 120.269531 C 110.207031 122.683594 111.546875 125.363281 111.816406 128.714844 C 112.085938 131.800781 112.21875 135.019531 112.21875 135.019531 C 109.269531 135.152344 109 134.882812 108.734375 128.984375 Z M 106.050781 135.152344 C 102.96875 135.152344 102.699219 134.75 102.429688 128.984375 C 102.296875 124.695312 99.347656 121.878906 98.8125 118.257812 C 98.273438 114.503906 100.421875 111.019531 102.164062 108.46875 C 104.039062 111.285156 101.894531 113.96875 101.761719 115.980469 C 101.359375 120.804688 105.113281 123.890625 105.78125 128.984375 C 106.050781 131.800781 106.050781 135.152344 106.050781 135.152344 Z M 99.75 135.152344 C 96.53125 135.152344 96.398438 134.617188 96.265625 128.984375 C 96.128906 124.960938 92.914062 120.804688 92.914062 117.183594 C 92.777344 111.554688 96.53125 107.667969 97.335938 103.375 C 98.007812 99.621094 94.386719 87.957031 93.851562 85.945312 C 93.582031 85.140625 91.972656 83.53125 91.972656 82.996094 C 91.972656 82.058594 92.777344 81.386719 92.644531 79.105469 C 92.644531 77.496094 92.242188 75.351562 92.242188 75.351562 C 93.851562 75.753906 95.59375 79.105469 96.128906 81.253906 C 96.667969 82.996094 97.605469 86.214844 98.273438 88.761719 C 98.945312 91.175781 100.957031 98.816406 100.6875 102.703125 C 100.421875 106.863281 95.863281 111.421875 95.996094 116.785156 C 95.996094 121.34375 99.078125 124.425781 99.617188 128.851562 C 99.75 131.800781 99.75 135.152344 99.75 135.152344 Z M 93.582031 135.152344 C 90.632812 135.152344 90.363281 134.347656 90.230469 129.117188 C 90.097656 124.558594 87.148438 121.207031 86.746094 117.183594 C 86.207031 111.152344 91.4375 107.261719 91.570312 102.304688 C 91.570312 98.546875 88.890625 90.773438 89.023438 85.945312 C 90.765625 85.8125 91.167969 87.285156 91.707031 89.164062 C 92.777344 92.382812 94.253906 98.949219 94.253906 102.4375 C 94.117188 108.066406 89.5625 110.617188 89.828125 117.320312 C 89.960938 121.609375 93.3125 125.363281 93.582031 129.253906 C 93.714844 131.53125 93.582031 135.152344 93.582031 135.152344 Z M 87.550781 135.152344 C 84.195312 135.152344 84.195312 134.214844 84.0625 129.117188 C 83.929688 125.230469 81.382812 121.609375 80.980469 117.453125 C 80.308594 112.089844 85.269531 107.128906 85.671875 102.839844 C 85.941406 99.488281 84.867188 96.804688 84.195312 93.050781 C 83.929688 91.308594 83.796875 87.019531 83.929688 85.410156 C 85.941406 85.273438 86.609375 86.882812 86.609375 88.089844 C 86.609375 89.699219 86.746094 91.308594 87.011719 92.917969 C 87.550781 96 88.621094 99.085938 88.621094 102.304688 C 88.621094 107.398438 83.394531 110.882812 84.195312 117.320312 C 84.601562 121.609375 87.011719 124.558594 87.414062 129.117188 C 87.683594 131.53125 87.550781 135.152344 87.550781 135.152344 Z M 77.628906 128.984375 C 77.359375 124.828125 75.484375 121.074219 75.082031 117.453125 C 74.679688 113.699219 75.484375 111.152344 77.089844 108.335938 C 78.164062 106.324219 79.503906 104.984375 79.773438 102.839844 C 80.042969 100.695312 79.371094 98.546875 78.96875 96.402344 C 78.566406 93.855469 78.96875 85.410156 78.96875 85.410156 C 76.421875 85.675781 75.886719 91.84375 76.152344 95.734375 C 76.285156 98.28125 77.359375 101.097656 76.957031 103.375 C 76.691406 105.253906 74.945312 106.460938 74.007812 108.203125 C 72.667969 110.617188 71.996094 113.566406 72.265625 117.453125 C 72.535156 121.746094 74.410156 124.558594 74.945312 128.984375 C 75.214844 131.398438 75.082031 135.019531 75.082031 135.019531 C 71.730469 135.019531 71.863281 133.8125 71.59375 129.117188 C 71.328125 124.960938 68.914062 122.148438 68.511719 118.125 C 68.109375 114.234375 68.914062 110.617188 70.65625 107.933594 C 71.460938 106.59375 73.070312 105.253906 73.605469 103.507812 C 74.410156 100.828125 72.667969 96.136719 73.203125 91.980469 C 73.875 87.152344 75.75 80.449219 76.957031 79.507812 C 79.773438 79.910156 81.246094 79.105469 82.453125 78.839844 C 83.257812 78.839844 84.0625 79.777344 85.003906 79.777344 C 86.207031 79.777344 87.148438 79.105469 87.953125 78.4375 C 88.621094 78.839844 88.890625 79.507812 88.488281 80.179688 C 87.816406 81.253906 86.878906 82.191406 86.878906 82.191406 C 84.464844 82.726562 81.382812 81.921875 80.710938 82.324219 C 81.785156 85.140625 80.84375 88.625 81.246094 92.382812 C 81.648438 96.136719 82.855469 99.621094 82.722656 102.304688 C 82.589844 104.046875 81.113281 106.324219 80.308594 108.203125 C 79.101562 110.75 77.628906 113.296875 78.03125 117.320312 C 78.433594 121.609375 80.578125 124.292969 80.980469 128.851562 C 81.113281 131.265625 81.246094 135.019531 81.246094 135.019531 C 78.03125 135.152344 78.03125 133.945312 77.628906 128.984375 Z M 67.304688 104.984375 C 66.902344 101.5 65.5625 97.476562 65.828125 93.855469 C 65.964844 91.84375 67.035156 89.296875 67.707031 86.882812 C 68.375 84.066406 69.449219 79.910156 70.789062 78.035156 C 71.996094 76.292969 73.738281 75.21875 76.691406 73.878906 C 78.296875 73.207031 79.101562 72.671875 79.90625 71.464844 C 78.433594 70.660156 77.359375 70.792969 76.285156 71.464844 C 75.484375 72 74.542969 72.402344 73.605469 72.9375 C 69.316406 74.949219 67.839844 77.230469 66.5 81.386719 C 66.097656 82.460938 65.695312 84.46875 65.292969 86.480469 C 64.890625 88.761719 63.417969 91.039062 63.148438 93.050781 C 62.476562 97.476562 65.292969 104.179688 64.757812 110.078125 C 64.621094 112.089844 63.816406 113.96875 63.816406 115.84375 C 63.683594 121.074219 66.769531 125.902344 67.171875 130.726562 C 67.304688 131.667969 67.304688 132.46875 67.304688 133.542969 C 67.304688 134.617188 66.367188 135.421875 64.355469 135.421875 C 64.355469 135.421875 64.488281 133.140625 64.222656 130.59375 C 63.683594 125.765625 61.003906 120.804688 60.464844 117.183594 C 60.0625 114.234375 61.941406 111.554688 61.808594 107.128906 C 61.671875 102.570312 59.527344 96.804688 60.464844 92.515625 C 61.003906 89.96875 62.746094 87.957031 63.148438 85.542969 C 63.417969 83.800781 64.085938 80.714844 64.757812 79.105469 C 65.292969 77.632812 66.632812 75.753906 67.574219 74.144531 C 68.511719 72.269531 69.316406 70.390625 67.171875 69.183594 C 66.632812 70.257812 65.964844 71.867188 65.292969 73.074219 C 64.355469 74.816406 63.015625 76.292969 62.34375 78.035156 C 61.269531 80.449219 61.40625 82.191406 60.867188 84.738281 C 60.199219 87.285156 58.457031 89.027344 57.917969 91.578125 C 56.980469 96.269531 59.125 101.765625 59.125 106.863281 C 58.992188 109.945312 57.25 113.566406 57.515625 116.648438 C 57.917969 121.476562 60.464844 125.5 61.269531 130.460938 C 61.40625 131.398438 61.539062 132.335938 61.539062 133.542969 C 61.539062 135.019531 60.199219 135.421875 58.722656 135.421875 C 58.722656 135.421875 58.722656 133.140625 58.457031 130.59375 C 57.785156 125.230469 54.835938 121.746094 54.703125 116.382812 C 54.703125 113.566406 56.042969 109.8125 56.308594 106.726562 C 56.578125 101.363281 54.164062 95.597656 55.507812 90.503906 C 56.175781 87.824219 57.785156 87.285156 58.722656 84.46875 C 59.394531 82.191406 59.527344 78.972656 60.199219 77.09375 C 60.734375 75.488281 62.210938 74.144531 63.28125 72.136719 C 64.355469 69.988281 65.023438 68.113281 62.878906 66.371094 C 62.34375 67.441406 61.808594 69.722656 61.136719 71.0625 C 60.0625 73.074219 58.589844 74.144531 57.652344 76.023438 C 56.578125 78.300781 56.710938 81.253906 56.042969 83.800781 C 55.507812 86.078125 53.628906 87.019531 52.957031 89.429688 C 51.351562 94.792969 53.628906 101.097656 53.359375 106.324219 C 53.226562 108.871094 51.75 112.894531 51.75 115.710938 C 51.617188 120.941406 54.703125 125.230469 55.371094 130.460938 C 55.507812 131.398438 55.640625 132.738281 55.640625 133.542969 C 55.640625 135.019531 54.03125 135.421875 52.554688 135.421875 C 52.554688 135.421875 52.554688 133.273438 52.152344 130.726562 C 51.484375 125.363281 48.535156 121.34375 48.800781 115.308594 C 48.9375 112.492188 50.546875 108.871094 50.546875 105.921875 C 50.546875 100.558594 48.667969 93.050781 50.546875 88.359375 C 51.214844 86.617188 53.226562 84.738281 53.628906 83.398438 C 53.898438 82.191406 54.164062 80.3125 54.433594 78.972656 C 54.703125 77.632812 54.96875 76.15625 55.640625 74.949219 C 57.113281 71.730469 59.664062 70.660156 59.929688 66.101562 C 60.199219 60.871094 59.261719 53.898438 60.464844 49.742188 C 62.074219 44.378906 65.964844 41.96875 70.523438 41.296875 C 78.433594 40.089844 88.753906 40.359375 94.789062 41.96875 C 95.460938 44.113281 97.871094 46.527344 97.472656 47.867188 C 97.472656 47.867188 96.398438 47.0625 95.058594 46.929688 C 93.3125 46.792969 91.707031 47.332031 88.890625 47.730469 C 88.21875 47.867188 87.550781 47.730469 86.878906 47.730469 C 85.941406 47.730469 85.671875 47.867188 85.671875 49.742188 C 85.539062 51.351562 85.136719 52.828125 85.402344 54.4375 C 85.671875 55.644531 86.746094 56.714844 87.28125 58.054688 C 87.683594 59.261719 87.816406 61.273438 88.21875 63.015625 C 89.023438 66.503906 90.097656 68.515625 87.28125 70.390625 C 85.671875 69.050781 81.382812 65.699219 80.84375 69.988281 C 82.1875 70.390625 83.796875 70.792969 84.734375 71.597656 C 84.601562 72.402344 84.601562 74.144531 84.734375 74.546875 C 84.867188 75.085938 85.671875 75.488281 86.34375 75.351562 C 86.878906 74.546875 86.878906 72.804688 88.488281 72.9375 C 89.023438 74.546875 88.621094 77.363281 86.746094 77.496094 C 85.539062 77.632812 85.003906 76.425781 83.796875 76.292969 C 82.320312 76.15625 81.246094 77.496094 79.640625 77.496094 C 79.238281 77.363281 79.371094 76.960938 79.371094 76.558594 C 79.371094 76.15625 79.238281 75.753906 78.699219 75.890625 C 76.019531 76.695312 73.875 78.167969 72.800781 80.582031 C 71.996094 82.324219 71.328125 85.410156 70.65625 87.6875 C 69.582031 91.175781 68.644531 93.183594 69.316406 97.878906 C 69.316406 100.828125 69.984375 103.507812 67.304688 104.984375 Z M 45.851562 85.410156 C 44.511719 87.6875 44.378906 91.175781 44.644531 94.792969 C 44.78125 98.011719 45.851562 104.3125 42.234375 105.386719 C 38.613281 106.460938 34.859375 107.933594 31.773438 109.273438 C 29.496094 110.347656 27.082031 112.359375 25.207031 111.285156 C 27.617188 106.726562 33.785156 105.117188 38.882812 103.375 C 41.832031 102.304688 41.964844 100.695312 42.097656 98.414062 C 42.367188 94.257812 41.429688 87.6875 43.039062 84.335938 C 43.976562 82.460938 46.523438 81.519531 46.925781 79.375 C 47.328125 77.765625 47.59375 75.351562 48.398438 73.207031 C 49.472656 70.527344 51.214844 68.917969 51.886719 66.234375 C 52.421875 64.089844 52.554688 61.273438 52.289062 58.59375 C 52.289062 58.59375 53.226562 57.789062 54.703125 57.253906 C 54.96875 61.140625 55.105469 63.015625 54.566406 66.503906 C 54.164062 68.78125 52.152344 70.929688 51.082031 73.074219 C 49.472656 76.023438 50.007812 79.242188 48.800781 81.789062 C 48.265625 83.261719 46.792969 84.066406 45.851562 85.410156 Z M 43.976562 127.511719 C 41.695312 123.621094 40.222656 120.671875 44.242188 120.671875 C 44.644531 123.621094 46.523438 127.105469 46.925781 130.863281 C 46.792969 130.726562 45.046875 129.519531 43.976562 127.511719 Z M 41.027344 133.007812 C 38.210938 129.519531 35.929688 124.558594 35.394531 121.746094 C 34.589844 116.785156 38.480469 115.84375 43.304688 114.503906 C 43.304688 114.503906 43.839844 115.980469 42.636719 117.589844 C 38.746094 118.660156 38.480469 119.464844 38.480469 121.476562 C 38.480469 124.425781 41.5625 130.191406 45.449219 134.347656 C 44.378906 135.019531 43.039062 135.421875 41.027344 133.007812 Z M 33.652344 132.738281 C 32.445312 131.128906 30.570312 127.511719 29.765625 124.558594 C 28.960938 121.609375 27.886719 117.453125 29.898438 114.773438 C 32.578125 111.285156 40.085938 109.007812 44.242188 108.066406 C 44.242188 108.066406 44.511719 110.078125 42.902344 111.554688 C 38.34375 113.027344 32.578125 114.101562 32.175781 118.929688 C 31.773438 123.488281 33.921875 127.511719 36.332031 131.398438 C 37.675781 133.410156 38.480469 134.882812 38.480469 134.882812 C 36.066406 135.554688 35.128906 134.617188 33.652344 132.738281 Z M 7.375 123.488281 C 7.375 123.488281 7.507812 122.148438 7.777344 121.207031 C 7.910156 120.804688 8.582031 120.539062 9.25 120.804688 C 12.066406 122.148438 19.171875 127.644531 21.316406 129.65625 C 23.460938 131.800781 25.609375 133.542969 25.609375 134.882812 C 21.050781 131.667969 12.601562 125.230469 7.375 123.488281 Z M 8.714844 135.285156 C 8.042969 135.285156 7.640625 134.617188 7.640625 133.273438 C 7.640625 132.738281 7.507812 131.53125 7.507812 130.324219 C 7.507812 128.179688 8.042969 127.375 8.042969 127.375 C 12.199219 129.117188 15.550781 131.53125 21.050781 135.6875 C 17.296875 135.824219 9.386719 135.285156 8.714844 135.285156 Z M 7.777344 112.894531 C 7.910156 112.226562 8.042969 111.554688 9.386719 111.824219 C 10.726562 112.089844 17.699219 114.636719 19.304688 115.175781 C 20.78125 115.578125 21.855469 116.515625 21.988281 118.390625 C 22.523438 122.546875 23.863281 126.167969 24.265625 128.851562 C 21.453125 125.363281 12.46875 117.988281 7.375 115.578125 C 7.375 115.578125 7.640625 113.832031 7.777344 112.894531 Z M 7.640625 75.753906 C 7.640625 75.21875 8.179688 73.339844 8.984375 73.339844 L 29.496094 73.339844 C 30.570312 73.339844 30.703125 73.878906 30.703125 73.878906 C 25.875 76.292969 25.875 83.53125 26.144531 90.90625 C 19.707031 93.453125 11.933594 96.671875 8.984375 103.507812 C 8.3125 105.253906 7.640625 102.4375 7.640625 102.4375 Z M 7.640625 36.203125 C 7.640625 35.933594 8.445312 35.53125 9.25 35.800781 C 10.457031 36.203125 28.15625 42.503906 28.15625 42.503906 C 33.382812 47.730469 37.003906 47.195312 38.078125 49.742188 C 35.527344 53.09375 33.25 56.046875 32.3125 58.59375 C 31.640625 60.335938 36.46875 62.480469 36.46875 62.480469 C 35.796875 63.820312 34.324219 65.566406 32.980469 68.917969 C 32.980469 69.050781 32.578125 69.320312 32.3125 69.320312 L 9.652344 69.320312 C 9.25 69.320312 7.640625 68.917969 7.640625 68.515625 Z M 7.640625 10.054688 C 7.640625 9.117188 8.3125 7.640625 8.847656 7.640625 L 31.371094 7.640625 C 31.371094 7.640625 32.578125 7.777344 33.519531 8.445312 C 35.394531 11.53125 37.941406 15.957031 40.085938 19.308594 C 41.027344 20.917969 41.292969 21.988281 40.222656 22.660156 C 38.34375 23.730469 36.066406 24.671875 34.054688 26.011719 C 32.3125 27.21875 31.238281 29.765625 30.433594 31.910156 C 29.363281 34.726562 28.289062 38.210938 28.289062 38.210938 C 28.289062 38.210938 27.886719 38.480469 27.617188 38.347656 C 22.257812 36.335938 12.738281 32.984375 8.984375 31.644531 C 7.507812 31.105469 7.375 30.300781 7.375 30.300781 Z M 38.34375 7.640625 L 68.644531 7.640625 C 68.644531 7.640625 68.78125 7.910156 68.511719 8.179688 C 67.574219 8.984375 66.5 10.191406 65.828125 10.191406 C 58.992188 10.59375 52.691406 10.996094 48.265625 13.003906 C 45.988281 13.945312 45.183594 15.554688 43.839844 17.429688 C 43.839844 17.429688 43.039062 17.164062 42.234375 15.6875 C 41.695312 14.882812 38.210938 8.847656 38.078125 8.582031 C 37.941406 8.3125 37.808594 7.640625 38.34375 7.640625 Z M 46.925781 25.339844 C 46.925781 25.339844 48.132812 19.84375 51.214844 18.367188 C 55.640625 16.089844 63.683594 16.359375 63.683594 16.359375 C 59.664062 19.976562 54.03125 23.328125 46.925781 25.339844 Z M 34.859375 37.273438 C 34.859375 37.273438 35.664062 34.726562 36.734375 32.046875 C 37.40625 30.167969 40.085938 29.09375 42.769531 28.425781 C 41.160156 31.105469 40.625 34.59375 34.859375 37.273438 Z M 72.535156 17.832031 C 78.835938 19.039062 81.246094 19.441406 89.425781 19.039062 C 95.863281 18.769531 100.421875 19.976562 101.089844 22.527344 C 101.625 24.402344 100.152344 26.546875 98.273438 28.960938 C 96.128906 27.21875 92.777344 25.609375 88.355469 24.804688 C 80.042969 23.328125 68.914062 22.792969 56.980469 28.558594 C 49.875 32.046875 44.511719 35.664062 40.890625 41.832031 C 40.085938 43.171875 37.808594 42.371094 35.527344 40.222656 C 38.34375 38.882812 41.5625 37.542969 44.511719 31.105469 C 45.316406 29.230469 46.523438 28.289062 47.996094 27.753906 C 52.691406 26.011719 57.382812 24.132812 61.136719 21.722656 C 65.425781 19.039062 67.4375 16.894531 72.535156 17.832031 Z M 75.484375 11.398438 C 77.628906 10.859375 80.84375 11.53125 82.453125 12.203125 C 84.601562 13.273438 87.28125 16.222656 87.28125 16.222656 C 87.28125 16.222656 83.257812 16.492188 79.773438 16.089844 C 76.285156 15.6875 71.058594 14.480469 71.058594 14.480469 C 72.535156 13.003906 73.738281 11.800781 75.484375 11.398438 Z M 87.816406 7.640625 L 106.988281 7.640625 C 107.660156 7.640625 107.660156 8.582031 107.257812 9.25 C 106.183594 10.996094 103.101562 15.417969 103.101562 15.417969 C 103.101562 15.417969 99.078125 13.945312 93.3125 13.003906 C 92.644531 12.871094 90.097656 10.191406 87.953125 8.179688 C 87.550781 7.910156 87.816406 7.640625 87.816406 7.640625 Z M 109.269531 69.453125 C 108.597656 69.453125 108.464844 68.917969 108.195312 68.378906 C 106.855469 65.566406 104.84375 62.078125 103.503906 59.398438 C 103.371094 59.128906 102.699219 56.582031 102.699219 55.507812 L 102.164062 48.9375 C 102.164062 48.9375 102.296875 48.402344 102.96875 47.867188 C 106.320312 45.183594 107.390625 44.378906 108.597656 43.976562 C 109.804688 43.574219 133.535156 35.664062 133.535156 35.664062 C 134.472656 35.261719 135.144531 35.933594 135.144531 35.933594 L 135.144531 68.246094 C 135.144531 68.246094 134.742188 69.585938 134.074219 69.585938 L 109.269531 69.585938 Z M 101.492188 69.585938 C 101.492188 69.585938 103.101562 72 103.90625 75.21875 C 105.78125 82.460938 106.988281 86.882812 108.332031 92.113281 C 108.734375 93.855469 109.671875 97.476562 109.402344 99.753906 C 108.597656 104.582031 108.332031 107.261719 108.332031 107.261719 C 108.332031 107.261719 106.988281 105.386719 106.585938 102.570312 C 106.320312 100.960938 106.453125 99.21875 106.320312 97.609375 C 105.78125 92.246094 103.234375 85.273438 101.492188 76.828125 C 100.6875 73.476562 100.957031 71.0625 101.492188 69.585938 Z M 58.589844 30.703125 C 65.828125 27.085938 75.347656 26.144531 83.796875 26.949219 C 91.167969 27.621094 94.789062 29.632812 95.058594 31.242188 C 95.058594 31.242188 89.828125 29.632812 83.660156 29.363281 C 73.875 28.960938 66.632812 29.632812 59.929688 32.582031 C 51.886719 36.203125 44.242188 42.769531 44.242188 42.769531 C 44.242188 42.769531 44.242188 37.808594 58.589844 30.703125 Z M 50.277344 41.566406 C 48.800781 45.453125 47.058594 47.867188 45.449219 48.804688 C 44.511719 49.476562 43.574219 49.878906 43.574219 49.878906 C 43.574219 49.878906 42.902344 48.402344 44.378906 46.390625 C 45.988281 44.648438 48.667969 42.503906 50.277344 41.566406 Z M 32.578125 80.3125 C 33.519531 78.035156 35.128906 76.292969 37.808594 75.621094 C 37.941406 72.539062 39.148438 69.988281 40.757812 67.710938 C 42.367188 65.566406 42.5 65.566406 42.5 63.554688 C 42.5 63.554688 43.707031 62.75 45.046875 62.347656 C 45.316406 65.027344 44.78125 65.832031 43.707031 67.574219 C 41.695312 70.792969 41.292969 70.527344 40.625 75.21875 C 40.488281 76.425781 40.488281 76.960938 39.683594 77.496094 C 37.808594 78.570312 36.332031 79.242188 35.527344 81.386719 C 33.785156 85.410156 34.457031 90.773438 34.1875 95.867188 C 34.1875 96.402344 34.054688 96.804688 33.382812 97.074219 C 28.019531 99.21875 22.121094 101.363281 18.503906 106.191406 C 17.429688 107.667969 16.894531 108.46875 15.015625 106.863281 C 15.015625 106.863281 15.285156 104.851562 17.832031 102.4375 C 21.183594 99.085938 27.351562 96.941406 31.640625 95.0625 C 31.507812 89.429688 31.105469 84.203125 32.578125 80.3125 Z M 39.417969 97.207031 C 39.28125 99.621094 38.882812 100.558594 37.003906 101.097656 C 32.445312 102.570312 27.886719 104.179688 23.863281 108.203125 C 22.925781 109.140625 21.71875 110.882812 19.84375 109.140625 C 21.585938 103.910156 29.898438 100.828125 34.054688 99.21875 C 35.664062 98.546875 36.601562 97.878906 36.601562 96.269531 C 36.734375 92.648438 35.929688 86.75 37.941406 82.191406 C 39.148438 79.644531 42.097656 79.242188 42.5 77.230469 C 42.769531 75.890625 42.769531 74.683594 43.171875 73.742188 C 44.242188 70.792969 45.585938 69.183594 46.523438 67.171875 C 47.195312 65.566406 47.863281 64.625 47.460938 61.273438 C 47.460938 61.273438 48.667969 60.46875 50.007812 59.933594 C 50.277344 62.75 50.144531 64.761719 49.203125 67.308594 C 48.265625 69.855469 46.65625 70.929688 45.851562 73.742188 C 45.449219 74.949219 45.183594 76.960938 44.914062 78.167969 C 44.511719 80.449219 41.964844 80.984375 40.757812 83.261719 C 38.34375 87.824219 39.683594 93.050781 39.417969 97.207031 Z M 83.660156 34.324219 C 78.164062 34.054688 70.789062 34.457031 66.769531 35.664062 C 61.539062 37.140625 58.054688 40.222656 54.835938 46.390625 C 52.554688 50.816406 49.472656 53.230469 44.78125 55.375 C 43.441406 55.910156 42.097656 56.449219 40.757812 56.714844 C 40.757812 55.777344 41.832031 53.765625 44.109375 52.691406 C 47.863281 50.949219 49.875 48.804688 52.019531 45.050781 C 55.773438 38.210938 61.003906 34.859375 65.964844 33.25 C 70.65625 31.777344 77.761719 31.507812 83.796875 31.777344 C 92.511719 32.179688 98.273438 34.457031 100.554688 37.40625 C 100.824219 37.808594 100.957031 38.210938 100.824219 38.882812 C 98.675781 37.40625 94.253906 34.859375 83.660156 34.324219 Z M 89.425781 51.21875 C 89.5625 50.28125 91.035156 49.742188 91.972656 49.476562 C 93.984375 48.9375 95.996094 49.742188 96.128906 51.21875 C 96.128906 52.691406 95.59375 53.363281 95.59375 53.363281 C 94.65625 52.023438 93.449219 50.816406 89.425781 51.21875 Z M 91.035156 60.203125 C 92.511719 60.066406 94.519531 59.261719 93.714844 57.117188 C 92.375 57.519531 91.167969 57.519531 90.363281 56.582031 C 91.304688 56.179688 92.644531 55.644531 93.046875 54.300781 C 93.046875 54.300781 93.179688 54.167969 93.3125 54.300781 C 93.851562 54.972656 94.117188 55.910156 94.789062 56.3125 C 95.324219 56.714844 97.066406 55.105469 97.066406 55.105469 C 98.410156 61.273438 96.128906 66.503906 95.460938 71.195312 C 94.253906 70.257812 94.117188 70.257812 92.644531 69.855469 C 92.777344 67.308594 92.644531 67.039062 91.035156 60.203125 Z M 114.898438 7.640625 L 133 7.640625 C 133.269531 7.640625 135.011719 8.179688 135.011719 8.714844 L 135.011719 30.035156 C 135.011719 30.035156 134.742188 31.105469 133.535156 31.507812 C 130.183594 32.582031 112.488281 38.347656 109.269531 39.417969 C 108.867188 39.554688 108.0625 39.554688 107.792969 38.882812 C 106.722656 35.800781 104.710938 33.117188 104.441406 32.714844 C 104.039062 32.179688 104.308594 31.375 104.710938 30.570312 C 105.648438 29.09375 106.855469 27.351562 107.390625 25.609375 C 108.332031 22.527344 106.855469 19.710938 106.585938 18.101562 C 106.453125 17.429688 106.453125 17.296875 107.125 16.222656 C 107.125 16.222656 110.878906 10.457031 111.949219 9.117188 C 112.753906 8.179688 113.425781 7.640625 114.898438 7.640625 Z M 114.898438 7.640625 "></path>
    <path style=" stroke:none;fill-rule:nonzero;fill:rgb(27.058824%,19.215686%,8.627451%);fill-opacity:1;" d="M 80.042969 47.195312 C 79.503906 47.0625 78.96875 47.195312 78.164062 47.195312 C 76.957031 47.195312 75.75 46.527344 74.410156 46.390625 C 72.132812 45.988281 69.179688 45.988281 67.035156 46.527344 C 64.757812 47.195312 61.808594 48.9375 62.613281 51.351562 C 63.953125 51.351562 65.160156 50.011719 66.632812 49.476562 C 68.78125 48.671875 72.132812 48.535156 74.8125 49.339844 C 75.75 49.609375 76.957031 50.816406 76.152344 51.890625 C 75.082031 51.488281 72.933594 50.949219 70.386719 51.085938 C 67.976562 51.21875 65.425781 52.425781 65.023438 54.4375 C 65.828125 54.839844 66.632812 55.242188 67.707031 54.839844 C 68.78125 57.652344 72.667969 56.851562 73.070312 54.035156 C 74.140625 54.035156 75.082031 54.703125 74.945312 55.242188 C 74.542969 56.851562 72.132812 57.253906 71.59375 57.921875 C 72.667969 59.664062 76.421875 59.664062 77.359375 56.582031 C 77.492188 56.046875 77.894531 55.105469 77.894531 55.105469 C 78.296875 54.972656 79.238281 54.4375 79.371094 54.035156 C 80.175781 52.425781 80.445312 50.414062 80.578125 48.804688 C 80.84375 48.132812 80.84375 47.332031 80.042969 47.195312 Z M 80.042969 47.195312 "></path>
    <path style=" stroke:none;fill-rule:nonzero;fill:rgb(27.058824%,19.215686%,8.627451%);fill-opacity:1;" d="M 78.164062 63.957031 C 76.421875 63.957031 75.484375 65.429688 75.484375 66.636719 C 75.484375 68.113281 76.421875 69.050781 77.628906 69.183594 C 77.628906 68.515625 77.628906 68.515625 77.761719 67.574219 C 77.894531 66.371094 78.433594 65.429688 78.566406 64.761719 C 78.835938 64.222656 78.566406 63.957031 78.164062 63.957031 Z M 78.164062 63.957031 "></path>
  </g>
</svg>
